<?xml version="1.0" standalone="no"?>
<!DOCTYPE svg PUBLIC "-//W3C//DTD SVG 20010904//EN"
 "http://www.w3.org/TR/2001/REC-SVG-20010904/DTD/svg10.dtd">
<svg version="1.0" xmlns="http://www.w3.org/2000/svg"
 width="260.000000pt" height="260.000000pt" viewBox="0 0 260.000000 260.000000"
 preserveAspectRatio="xMidYMid meet">
<metadata>
Created by potrace 1.11, written by Peter Selinger 2001-2013
</metadata>
<g transform="translate(0.000000,260.000000) scale(0.100000,-0.100000)"
fill="#000000" stroke="none">
<path d="M135 2576 c-60 -28 -87 -56 -114 -116 -20 -44 -21 -59 -21 -1150 0
-778 3 -1117 11 -1145 15 -54 42 -89 97 -127 l47 -33 1140 0 1140 0 40 22 c51
27 79 57 104 113 20 45 21 56 18 1175 l-2 1130 -27 42 c-34 52 -81 88 -133
102 -28 8 -377 11 -1145 11 l-1105 0 -50 -24z"/>
</g>
</svg>
