<?xml version="1.0" encoding="UTF-8" standalone="no"?>
<!-- Created with Inkscape (http://www.inkscape.org/) -->

<svg
   xmlns:dc="http://purl.org/dc/elements/1.1/"
   xmlns:cc="http://creativecommons.org/ns#"
   xmlns:rdf="http://www.w3.org/1999/02/22-rdf-syntax-ns#"
   xmlns:svg="http://www.w3.org/2000/svg"
   xmlns="http://www.w3.org/2000/svg"
   xmlns:sodipodi="http://sodipodi.sourceforge.net/DTD/sodipodi-0.dtd"
   xmlns:inkscape="http://www.inkscape.org/namespaces/inkscape"
   width="200"
   height="115"
   viewBox="0 0 200 115"
   id="svg2"
   version="1.1"
   inkscape:version="0.92.3 (2405546, 2018-03-11)"
   sodipodi:docname="logo_montana_luminosa_inverse.svg">
  <defs
     id="defs4">
    <clipPath
       id="clipPath4154-5"
       clipPathUnits="userSpaceOnUse">
      <path
         inkscape:connector-curvature="0"
         id="path4156-6"
         d="M 0,340.16 H 226.772 V 0 H 0 Z" />
    </clipPath>
  </defs>
  <sodipodi:namedview
     id="base"
     pagecolor="#ffffff"
     bordercolor="#666666"
     borderopacity="1.0"
     inkscape:pageopacity="0.0"
     inkscape:pageshadow="2"
     inkscape:zoom="2.9806452"
     inkscape:cx="103.17901"
     inkscape:cy="44.726911"
     inkscape:document-units="px"
     inkscape:current-layer="g4239"
     showgrid="false"
     units="px"
     inkscape:window-width="1301"
     inkscape:window-height="744"
     inkscape:window-x="65"
     inkscape:window-y="24"
     inkscape:window-maximized="1" />
  <metadata
     id="metadata7">
    <rdf:RDF>
      <cc:Work
         rdf:about="">
        <dc:format>image/svg+xml</dc:format>
        <dc:type
           rdf:resource="http://purl.org/dc/dcmitype/StillImage" />
        <dc:title></dc:title>
      </cc:Work>
    </rdf:RDF>
  </metadata>
  <g
     inkscape:label="Capa 1"
     inkscape:groupmode="layer"
     id="layer1"
     transform="translate(0,-937.36216)">
    <g
       id="g4239"
       transform="matrix(1.1352212,0,0,1.1352212,-1.8489672,32.779368)"
       style="fill:#1a1a1a;fill-opacity:1">
      <g
         id="g4150"
         transform="matrix(1.2230191,0,0,-1.2230191,-48.955222,1176.3393)"
         style="fill:#333333;fill-opacity:1">
        <g
           id="g4152"
           clip-path="url(#clipPath4154-5)"
           style="fill:#333333;fill-opacity:1">
          <g
             id="g4158"
             transform="translate(41.3599,260.0371)"
             style="fill:#333333;fill-opacity:1">
            <path
               d="m 0,0 12.885,12.625 6.421,6.333 6.357,6.392 c 1.049,1.074 2.139,2.11 3.156,3.215 l 3.085,3.283 3.083,3.283 1.542,1.641 0.385,0.411 c 0.176,0.184 0.281,0.276 0.425,0.419 0.28,0.258 0.515,0.53 0.847,0.773 1.229,1.024 2.585,1.808 4.077,2.319 1.482,0.51 3.057,0.756 4.629,0.703 1.571,-0.051 3.138,-0.406 4.574,-1.064 1.438,-0.655 2.734,-1.614 3.801,-2.777 l 0.019,-0.02 0.019,-0.027 c 1.183,-1.619 1.731,-3.495 2.71,-4.925 0.491,-0.709 1.112,-1.269 1.865,-1.63 0.182,-0.101 0.379,-0.174 0.582,-0.239 0.196,-0.078 0.402,-0.134 0.615,-0.175 l 0.316,-0.072 c 0.013,-0.018 0.204,-0.026 0.297,-0.039 0.231,-0.023 0.474,-0.053 0.677,-0.056 0.421,-0.035 0.875,-0.006 1.126,0.085 0.128,0.051 0.157,0.074 0.211,0.178 0.058,0.085 0.105,0.293 0.15,0.495 0.151,0.904 0.436,1.981 1.059,2.842 l 1.634,2.283 c 0.598,0.737 1.23,1.458 1.844,2.188 0.618,0.741 1.241,1.415 1.861,2.121 0.628,0.697 1.241,1.399 1.82,2.116 l 0.885,1.067 0.482,0.576 0.476,0.516 c 0.669,0.69 1.365,1.41 2.326,1.921 0.473,0.259 1.072,0.426 1.638,0.404 0.561,-0.009 1.076,-0.126 1.53,-0.246 0.923,-0.245 1.773,-0.451 2.666,-0.549 l 0.668,-0.059 0.612,0.046 0.558,0.136 c 0.208,0.072 0.408,0.131 0.623,0.214 0.83,0.299 1.829,0.798 3.024,0.625 l 0.064,-0.009 0.028,-0.014 c 0.221,-0.106 0.442,-0.219 0.658,-0.337 0.209,-0.121 0.353,-0.275 0.531,-0.413 0.36,-0.275 0.597,-0.605 0.895,-0.908 0.248,-0.325 0.522,-0.639 0.746,-0.973 0.236,-0.331 0.467,-0.662 0.68,-1.001 0.222,-0.336 0.425,-0.678 0.635,-1.017 l 0.304,-0.509 0.295,-0.54 c 0.378,-0.684 0.736,-1.399 1.085,-2.123 0.687,-1.432 1.333,-2.856 2.052,-4.227 l 0.571,-1.006 c 0.18,-0.342 0.406,-0.651 0.612,-0.974 0.396,-0.659 0.897,-1.237 1.355,-1.848 l -0.031,0.034 c 0.636,-0.66 1.142,-1.342 1.668,-2.009 0.521,-0.668 1.038,-1.325 1.591,-1.934 0.276,-0.302 0.555,-0.603 0.855,-0.866 0.293,-0.272 0.604,-0.522 0.926,-0.715 0.159,-0.108 0.322,-0.197 0.488,-0.259 0.164,-0.088 0.331,-0.125 0.496,-0.162 0.167,-0.063 0.327,-0.022 0.49,-0.041 0.161,0.004 0.312,0.069 0.473,0.089 l 0.026,0.004 0.017,0.01 c 0.161,0.098 0.341,0.106 0.499,0.249 0.162,0.121 0.331,0.231 0.477,0.406 0.156,0.151 0.306,0.316 0.44,0.507 0.144,0.178 0.281,0.365 0.408,0.567 0.525,0.787 0.992,1.645 1.49,2.501 0.254,0.428 0.508,0.856 0.792,1.277 0.285,0.419 0.58,0.84 0.947,1.223 0.35,0.389 0.773,0.751 1.287,1.006 0.234,0.161 0.55,-0.056 0.823,0.033 0.287,0.047 0.585,-0.23 0.875,-0.23 h 0.024 l 0.023,0.234 c 0.154,-0.061 0.308,-0.007 0.457,-0.079 0.147,-0.073 0.242,-0.115 0.363,-0.204 0.251,-0.178 0.389,-0.366 0.587,-0.565 0.334,-0.418 0.62,-0.836 0.887,-1.274 0.527,-0.88 0.98,-1.773 1.433,-2.669 0.453,-0.895 0.889,-1.79 1.36,-2.66 0.474,-0.862 0.969,-1.734 1.594,-2.407 l -0.033,0.031 1.428,-0.958 1.558,-0.771 1.635,-0.635 1.677,-0.558 c 1.129,-0.349 2.257,-0.728 3.384,-1.124 l 1.664,-0.681 c 0.538,-0.273 1.068,-0.563 1.599,-0.844 l -0.016,0.009 0.746,-0.452 0.679,-0.532 c 0.426,-0.381 0.83,-0.776 1.221,-1.179 l 0.011,-0.011 0.005,-0.006 c 0.816,-1.072 1.569,-2.184 2.344,-3.28 0.779,-1.093 1.472,-2.245 2.211,-3.364 0.363,-0.565 0.735,-1.123 1.088,-1.693 l 1.005,-1.744 2.009,-3.485 -2.094,3.433 -1.046,1.716 c -0.367,0.56 -0.753,1.109 -1.128,1.664 -0.765,1.099 -1.485,2.23 -2.288,3.301 -0.8,1.074 -1.579,2.164 -2.414,3.206 l 0.016,-0.018 c -0.399,0.393 -0.806,0.769 -1.223,1.125 l -0.655,0.487 -0.701,0.402 -0.011,0.006 -0.006,0.003 -1.564,0.777 -1.642,0.625 c -1.117,0.364 -2.248,0.704 -3.387,1.038 l -1.705,0.541 -1.687,0.63 -1.639,0.783 c -0.516,0.325 -1.024,0.666 -1.537,1.001 l -0.014,0.009 -0.019,0.021 c -0.751,0.79 -1.253,1.677 -1.757,2.557 -0.494,0.885 -0.946,1.781 -1.408,2.666 -0.463,0.884 -0.924,1.767 -1.439,2.599 -0.26,0.413 -0.532,0.811 -0.829,1.173 -0.159,0.151 -0.301,0.362 -0.471,0.466 -0.163,0.155 -0.323,0.209 -0.469,0.279 l 0.045,-0.009 c -0.198,-0.016 -0.398,0.015 -0.59,-0.02 -0.185,-0.079 -0.39,-0.068 -0.562,-0.201 -0.363,-0.187 -0.703,-0.471 -1,-0.815 -0.308,-0.329 -0.576,-0.72 -0.837,-1.114 -0.26,-0.397 -0.5,-0.816 -0.741,-1.235 -0.478,-0.847 -0.936,-1.723 -1.489,-2.577 -0.132,-0.216 -0.281,-0.427 -0.443,-0.634 -0.147,-0.212 -0.321,-0.415 -0.515,-0.609 -0.17,-0.206 -0.404,-0.38 -0.636,-0.551 -0.213,-0.188 -0.541,-0.277 -0.812,-0.404 l 0.042,0.014 c -0.253,-0.058 -0.509,-0.147 -0.769,-0.159 -0.26,0.01 -0.533,-0.021 -0.774,0.058 -0.251,0.051 -0.497,0.115 -0.712,0.224 -0.231,0.089 -0.44,0.203 -0.635,0.331 -0.404,0.242 -0.76,0.53 -1.089,0.831 -0.339,0.296 -0.64,0.617 -0.937,0.938 -0.59,0.645 -1.126,1.321 -1.651,1.989 -0.525,0.663 -1.042,1.34 -1.588,1.899 l -0.024,0.026 -0.007,0.01 c -0.49,0.643 -1.023,1.258 -1.445,1.947 -0.218,0.339 -0.457,0.667 -0.647,1.021 l -0.598,1.045 c -0.749,1.413 -1.412,2.853 -2.091,4.256 -0.338,0.691 -0.686,1.382 -1.074,2.074 l -0.271,0.494 -0.305,0.503 c -0.205,0.329 -0.405,0.664 -0.619,0.982 -0.207,0.328 -0.428,0.64 -0.649,0.95 -0.216,0.317 -0.465,0.595 -0.695,0.896 -0.254,0.253 -0.487,0.57 -0.761,0.767 -0.133,0.1 -0.264,0.239 -0.397,0.31 -0.134,0.064 -0.262,0.132 -0.39,0.207 l 0.092,-0.023 c -0.701,0.109 -1.493,-0.227 -2.391,-0.576 -0.221,-0.087 -0.47,-0.163 -0.704,-0.244 -0.256,-0.071 -0.544,-0.134 -0.809,-0.187 l -0.35,-0.029 -0.174,-0.015 -0.088,-0.008 -0.022,-0.002 -0.107,-0.001 -0.045,0.004 -0.732,0.061 c -0.969,0.1 -1.947,0.334 -2.833,0.566 -0.912,0.23 -1.608,0.333 -2.286,-0.069 -0.699,-0.372 -1.341,-1.006 -1.963,-1.661 l -0.473,-0.518 -0.42,-0.501 -0.912,-1.09 C 72.449,41.126 71.828,40.42 71.199,39.729 70.581,39.032 69.931,38.332 69.347,37.637 68.752,36.938 68.144,36.255 67.559,35.542 l -1.646,-2.275 c -0.476,-0.669 -0.71,-1.447 -0.872,-2.379 -0.062,-0.251 -0.101,-0.513 -0.278,-0.835 -0.068,-0.156 -0.217,-0.308 -0.349,-0.445 -0.151,-0.101 -0.323,-0.232 -0.475,-0.27 -0.634,-0.215 -1.142,-0.189 -1.649,-0.162 -0.265,0.01 -0.488,0.04 -0.722,0.064 -0.137,0.02 -0.185,0.007 -0.397,0.055 l -0.369,0.085 c -0.247,0.05 -0.491,0.118 -0.732,0.212 -0.243,0.08 -0.483,0.171 -0.713,0.297 -0.938,0.45 -1.742,1.194 -2.307,2.028 -1.116,1.685 -1.628,3.5 -2.673,4.917 l 0.037,-0.046 c -1.911,2.133 -4.69,3.416 -7.56,3.504 -1.432,0.054 -2.875,-0.164 -4.238,-0.625 -1.361,-0.446 -2.66,-1.18 -3.75,-2.063 -0.285,-0.193 -0.552,-0.487 -0.827,-0.734 L 37.655,36.504 37.262,36.098 35.694,34.473 32.557,31.225 29.421,27.977 C 28.385,26.884 27.281,25.861 26.214,24.8 l -6.451,-6.311 c -1.076,-1.051 -2.188,-2.063 -3.281,-3.097 l -3.29,-3.085 z"
               style="fill:#ffffff;fill-opacity:1;fill-rule:nonzero;stroke:none"
               id="path4160"
               inkscape:connector-curvature="0" />
          </g>
          <g
             id="g4162"
             transform="translate(57.6899,272.8667)"
             style="fill:#00c4cc;fill-opacity:1">
            <path
               d="m 0,0 c 5.434,4.809 10.251,9.947 15.39,15.084 0.641,0.963 1.283,1.606 1.925,2.569 0.643,0.321 1.286,0.963 1.606,1.606 0.321,0.321 0.642,0.321 0.964,0.642 3.211,4.495 8.992,6.422 14.129,4.817 3.853,-1.284 5.138,-5.138 7.385,-8.349 1.286,-1.606 3.384,-1.111 6.102,-1.606 1.453,-0.264 5.006,1.687 3.788,2.529 -1.286,0.889 0.798,3.395 0.798,3.395 3.212,3.211 4.084,6.6 7.294,9.49 0.965,0.642 1.929,0.963 3.213,0.642 2.568,-0.963 5.137,-0.642 7.386,0.321 1.283,0.321 1.768,-2.44 2.732,-3.404 2.569,-3.533 3.555,-6.328 5.482,-10.182 0.965,-1.606 2.702,-1.828 3.666,-3.112 1.928,-2.248 3.534,-5.139 6.424,-4.817 2.568,0 3.531,2.89 4.494,5.138 0.643,1.284 1.928,2.248 3.213,2.89 0.641,0 1.284,-0.642 1.926,-0.963 2.247,-2.89 2.891,-6.422 5.137,-8.992 2.89,-2.889 7.386,-2.569 11.241,-4.496 1.605,-0.962 4.173,-1.284 4.597,-3.593 -3.284,3.281 0.263,1.159 0,0 -3.284,3.281 -8.771,3.373 -13.108,3.644 -1.821,0.113 -7.597,-0.147 -4.383,-3.019 -2.65,-0.046 -5.109,1.012 -7.529,1.956 -1.415,0.371 -2.698,1.655 -4.304,1.334 -0.964,-0.643 0.322,-2.249 0,-2.249 -3.213,-1.605 -6.423,1.606 -8.993,3.854 -0.641,0.964 -1.283,1.927 -1.37,3.357 0.704,-0.389 -0.309,-2.17 0,0 0.736,-1.248 0.429,-2.846 1.29,-4.046 -1.935,0.173 -0.412,0.723 0,0 -3.867,1.457 -8.603,4.831 -8.319,9.489 0.078,-4.157 -3.719,-7.128 -3.916,-11.225 0.071,0.695 -0.005,1.393 -0.047,2.087 -1.221,-2.48 -4.742,-3.729 -4.132,-6.96 -0.06,3.369 -1.72,6.499 -1.616,9.886 0.102,3.449 1.722,6.763 1.05,10.245 C 61.762,15.675 58.11,6.681 54.619,11.958 53.444,10.706 46.472,3.748 49.318,2.156 47.561,2.464 46.28,3.825 44.733,4.597 c 0.292,-1.741 0.69,-3.595 1.721,-5.064 -5.033,1.261 -6.676,6.396 -6.646,11.061 -0.68,-1.252 -3.044,-0.995 -4.185,-0.713 -1.961,0.482 -2.461,2.479 -3.647,3.855 -0.113,-0.231 -0.863,-1.782 -0.119,-1.613 0.66,0.15 0.405,1.295 0.119,1.613 C 28.238,7.914 20.866,6.626 14.57,5.491 15.777,7.01 16.22,8.936 17.057,10.651 14.338,5.064 7.08,5.467 2.613,2.099"
               style="fill:#00c4cc;fill-opacity:1;fill-rule:nonzero;stroke:none"
               id="path4164"
               inkscape:connector-curvature="0" />
          </g>
        </g>
      </g>
      <text
         transform="scale(0.66632471,1.5007698)"
         style="font-variant:normal;font-weight:normal;font-stretch:normal;line-height:0%;font-family:'Cooper Black';-inkscape-font-specification:CooperBlack;writing-mode:lr-tb;fill:#ffffff;fill-opacity:1;fill-rule:nonzero;stroke:none;"
         id="text4166"
         x="13.272455"
         y="581.1322">
        <tspan
           dx="0"
           style="font-style:normal;font-variant:normal;font-weight:bold;font-stretch:normal;font-size:21.04672432px;line-height:125%;font-family:'Averia GWF';-inkscape-font-specification:'Averia GWF Bold';letter-spacing:0px;word-spacing:0px;fill:#ffffff;fill-opacity:1;"
           x="13.272455 31.877752 48.25211 65.720886 79.367584 96.773224 114.24198 131.64763 136.90932 149.88882 167.14716 185.75244 194.46577 211.71147 228.08583 241.31155"
           y="581.1322"
           sodipodi:role="line"
           id="tspan4168">MONTAÑA LUMINOSA</tspan>
      </text>
      <text
         id="text7179"
         y="889.9881"
         x="44.200207"
         style="font-style:normal;font-weight:normal;line-height:0%;font-family:sans-serif;letter-spacing:0px;word-spacing:0px;fill:#ffffff;fill-opacity:1;stroke:none;stroke-width:1px;stroke-linecap:butt;stroke-linejoin:miter;stroke-opacity:1;"
         xml:space="preserve"><tspan
           style="font-style:normal;font-variant:normal;font-weight:bold;font-stretch:normal;font-size:16.44319725px;line-height:1.25;font-family:'Dancing Script';-inkscape-font-specification:'Dancing Script Bold';fill:#ffffff;fill-opacity:1;"
           y="889.9881"
           x="44.200207"
           id="tspan7181"
           sodipodi:role="line">Café de Origen</tspan></text>
    </g>
  </g>
</svg>
