<?xml version="1.0" encoding="UTF-8" standalone="no"?>
<!-- Created with Inkscape (http://www.inkscape.org/) -->

<svg
   xmlns:dc="http://purl.org/dc/elements/1.1/"
   xmlns:cc="http://creativecommons.org/ns#"
   xmlns:rdf="http://www.w3.org/1999/02/22-rdf-syntax-ns#"
   xmlns:svg="http://www.w3.org/2000/svg"
   xmlns="http://www.w3.org/2000/svg"
   xmlns:sodipodi="http://sodipodi.sourceforge.net/DTD/sodipodi-0.dtd"
   xmlns:inkscape="http://www.inkscape.org/namespaces/inkscape"
   width="500"
   height="500"
   viewBox="0 0 500.00001 500.00001"
   id="svg2"
   version="1.1"
   inkscape:version="0.92.3 (2405546, 2018-03-11)"
   sodipodi:docname="san_agustin_gray.svg">
  <defs
     id="defs4">
    <inkscape:path-effect
       effect="sketch"
       id="path-effect4425"
       is_visible="true"
       nbiter_approxstrokes="5"
       strokelength="100"
       strokelength_rdm="0.3;1"
       strokeoverlap="0.3"
       strokeoverlap_rdm="0.3;1"
       ends_tolerance="0.1;1"
       parallel_offset="0;1"
       tremble_size="5;1"
       tremble_frequency="1"
       nbtangents="0"
       tgt_places_rdmness="1;1"
       tgtscale="10"
       tgtlength="100"
       tgtlength_rdm="0.3;1" />
    <inkscape:path-effect
       effect="sketch"
       id="path-effect4421"
       is_visible="true"
       nbiter_approxstrokes="2"
       strokelength="100"
       strokelength_rdm="0.3;1"
       strokeoverlap="0.3"
       strokeoverlap_rdm="0.3;1"
       ends_tolerance="0.1;1"
       parallel_offset="0;1"
       tremble_size="5;1"
       tremble_frequency="1"
       nbtangents="0"
       tgt_places_rdmness="1;1"
       tgtscale="10"
       tgtlength="100"
       tgtlength_rdm="0.3;1" />
    <inkscape:path-effect
       effect="sketch"
       id="path-effect4419"
       is_visible="true"
       nbiter_approxstrokes="2"
       strokelength="100"
       strokelength_rdm="0.3;1"
       strokeoverlap="0.3"
       strokeoverlap_rdm="0.3;1"
       ends_tolerance="0.1;1"
       parallel_offset="0;1"
       tremble_size="5;1"
       tremble_frequency="1"
       nbtangents="0"
       tgt_places_rdmness="1;1"
       tgtscale="10"
       tgtlength="100"
       tgtlength_rdm="0.3;1" />
    <inkscape:path-effect
       effect="sketch"
       id="path-effect4417"
       is_visible="true"
       nbiter_approxstrokes="2"
       strokelength="100"
       strokelength_rdm="0.3;1"
       strokeoverlap="0.3"
       strokeoverlap_rdm="0.3;1"
       ends_tolerance="0.1;1"
       parallel_offset="0;1"
       tremble_size="5;1"
       tremble_frequency="1"
       nbtangents="0"
       tgt_places_rdmness="1;1"
       tgtscale="10"
       tgtlength="100"
       tgtlength_rdm="0.3;1" />
    <inkscape:path-effect
       effect="sketch"
       id="path-effect4415"
       is_visible="true"
       nbiter_approxstrokes="3"
       strokelength="100"
       strokelength_rdm="0.3;1"
       strokeoverlap="0.3"
       strokeoverlap_rdm="0.3;1"
       ends_tolerance="0.1;1"
       parallel_offset="0;1"
       tremble_size="5;1"
       tremble_frequency="1"
       nbtangents="0"
       tgt_places_rdmness="1;1"
       tgtscale="10"
       tgtlength="100"
       tgtlength_rdm="0.3;1" />
    <inkscape:path-effect
       effect="sketch"
       id="path-effect4380"
       is_visible="true"
       nbiter_approxstrokes="2"
       strokelength="100"
       strokelength_rdm="0.3;1"
       strokeoverlap="0.3"
       strokeoverlap_rdm="0.3;1"
       ends_tolerance="0.1;1"
       parallel_offset="0;1"
       tremble_size="5;1"
       tremble_frequency="1"
       nbtangents="0"
       tgt_places_rdmness="1;1"
       tgtscale="10"
       tgtlength="100"
       tgtlength_rdm="0.3;1" />
    <inkscape:path-effect
       effect="sketch"
       id="path-effect4378"
       is_visible="true"
       nbiter_approxstrokes="2"
       strokelength="100"
       strokelength_rdm="0.3;1"
       strokeoverlap="0.3"
       strokeoverlap_rdm="0.3;1"
       ends_tolerance="0.1;1"
       parallel_offset="0;1"
       tremble_size="5;1"
       tremble_frequency="1"
       nbtangents="0"
       tgt_places_rdmness="1;1"
       tgtscale="10"
       tgtlength="100"
       tgtlength_rdm="0.3;1" />
    <inkscape:path-effect
       effect="sketch"
       id="path-effect4355"
       is_visible="true"
       nbiter_approxstrokes="2"
       strokelength="100"
       strokelength_rdm="0.3;1"
       strokeoverlap="0.3"
       strokeoverlap_rdm="0.3;1"
       ends_tolerance="0.1;1"
       parallel_offset="0;1"
       tremble_size="5;1"
       tremble_frequency="1"
       nbtangents="0"
       tgt_places_rdmness="1;1"
       tgtscale="10"
       tgtlength="100"
       tgtlength_rdm="0.3;1" />
    <inkscape:path-effect
       effect="sketch"
       id="path-effect4353"
       is_visible="true"
       nbiter_approxstrokes="2"
       strokelength="100"
       strokelength_rdm="0.3;1"
       strokeoverlap="0.3"
       strokeoverlap_rdm="0.3;1"
       ends_tolerance="0.1;1"
       parallel_offset="0;1"
       tremble_size="5;1"
       tremble_frequency="1"
       nbtangents="0"
       tgt_places_rdmness="1;1"
       tgtscale="10"
       tgtlength="100"
       tgtlength_rdm="0.3;1" />
    <inkscape:path-effect
       effect="sketch"
       id="path-effect4351"
       is_visible="true"
       nbiter_approxstrokes="2"
       strokelength="100"
       strokelength_rdm="0.3;1"
       strokeoverlap="0.3"
       strokeoverlap_rdm="0.3;1"
       ends_tolerance="0.1;1"
       parallel_offset="0;1"
       tremble_size="5;1"
       tremble_frequency="1"
       nbtangents="0"
       tgt_places_rdmness="1;1"
       tgtscale="10"
       tgtlength="100"
       tgtlength_rdm="0.3;1" />
    <inkscape:path-effect
       effect="sketch"
       id="path-effect4349"
       is_visible="true"
       nbiter_approxstrokes="2"
       strokelength="100"
       strokelength_rdm="0.3;1"
       strokeoverlap="0.3"
       strokeoverlap_rdm="0.3;1"
       ends_tolerance="0.1;1"
       parallel_offset="0;1"
       tremble_size="5;1"
       tremble_frequency="1"
       nbtangents="0"
       tgt_places_rdmness="1;1"
       tgtscale="10"
       tgtlength="100"
       tgtlength_rdm="0.3;1" />
    <inkscape:path-effect
       effect="sketch"
       id="path-effect4347"
       is_visible="true"
       nbiter_approxstrokes="3"
       strokelength="100"
       strokelength_rdm="0.3;1"
       strokeoverlap="0.3"
       strokeoverlap_rdm="0.3;1"
       ends_tolerance="0.1;1"
       parallel_offset="0;1"
       tremble_size="5;1"
       tremble_frequency="1"
       nbtangents="0"
       tgt_places_rdmness="1;1"
       tgtscale="10"
       tgtlength="100"
       tgtlength_rdm="0.3;1" />
    <inkscape:path-effect
       effect="sketch"
       id="path-effect4345"
       is_visible="true"
       nbiter_approxstrokes="3"
       strokelength="100"
       strokelength_rdm="0.3;1"
       strokeoverlap="0.3"
       strokeoverlap_rdm="0.3;1"
       ends_tolerance="0.1;1"
       parallel_offset="0;1"
       tremble_size="5;1"
       tremble_frequency="1"
       nbtangents="0"
       tgt_places_rdmness="1;1"
       tgtscale="10"
       tgtlength="100"
       tgtlength_rdm="0.3;1" />
    <inkscape:path-effect
       effect="sketch"
       id="path-effect4343"
       is_visible="true"
       nbiter_approxstrokes="3"
       strokelength="100"
       strokelength_rdm="0.3;1"
       strokeoverlap="0.3"
       strokeoverlap_rdm="0.3;1"
       ends_tolerance="0.1;1"
       parallel_offset="0;1"
       tremble_size="5;1"
       tremble_frequency="1"
       nbtangents="0"
       tgt_places_rdmness="1;1"
       tgtscale="10"
       tgtlength="100"
       tgtlength_rdm="0.3;1" />
    <inkscape:path-effect
       effect="sketch"
       id="path-effect4333"
       is_visible="true"
       nbiter_approxstrokes="3"
       strokelength="100"
       strokelength_rdm="0.3;1"
       strokeoverlap="0.3"
       strokeoverlap_rdm="0.3;1"
       ends_tolerance="0.1;1"
       parallel_offset="0;1"
       tremble_size="5;1"
       tremble_frequency="1"
       nbtangents="0"
       tgt_places_rdmness="1;1"
       tgtscale="10"
       tgtlength="100"
       tgtlength_rdm="0.3;1" />
    <inkscape:path-effect
       effect="sketch"
       id="path-effect4331"
       is_visible="true"
       nbiter_approxstrokes="3"
       strokelength="100"
       strokelength_rdm="0.3;1"
       strokeoverlap="0.3"
       strokeoverlap_rdm="0.3;1"
       ends_tolerance="0.1;1"
       parallel_offset="0;1"
       tremble_size="5;1"
       tremble_frequency="1"
       nbtangents="0"
       tgt_places_rdmness="1;1"
       tgtscale="10"
       tgtlength="100"
       tgtlength_rdm="0.3;1" />
    <inkscape:path-effect
       effect="sketch"
       id="path-effect4329"
       is_visible="true"
       nbiter_approxstrokes="3"
       strokelength="100"
       strokelength_rdm="0.3;1"
       strokeoverlap="0.3"
       strokeoverlap_rdm="0.3;1"
       ends_tolerance="0.1;1"
       parallel_offset="0;1"
       tremble_size="5;1"
       tremble_frequency="1"
       nbtangents="0"
       tgt_places_rdmness="1;1"
       tgtscale="10"
       tgtlength="100"
       tgtlength_rdm="0.3;1" />
    <inkscape:path-effect
       effect="sketch"
       id="path-effect4327"
       is_visible="true"
       nbiter_approxstrokes="3"
       strokelength="100"
       strokelength_rdm="0.3;1"
       strokeoverlap="0.3"
       strokeoverlap_rdm="0.3;1"
       ends_tolerance="0.1;1"
       parallel_offset="0;1"
       tremble_size="5;1"
       tremble_frequency="1"
       nbtangents="0"
       tgt_places_rdmness="1;1"
       tgtscale="10"
       tgtlength="100"
       tgtlength_rdm="0.3;1" />
    <inkscape:path-effect
       effect="sketch"
       id="path-effect4325"
       is_visible="true"
       nbiter_approxstrokes="3"
       strokelength="100"
       strokelength_rdm="0.3;1"
       strokeoverlap="0.3"
       strokeoverlap_rdm="0.3;1"
       ends_tolerance="0.1;1"
       parallel_offset="0;1"
       tremble_size="5;1"
       tremble_frequency="1"
       nbtangents="0"
       tgt_places_rdmness="1;1"
       tgtscale="10"
       tgtlength="100"
       tgtlength_rdm="0.3;1" />
    <inkscape:path-effect
       effect="spiro"
       id="path-effect4298"
       is_visible="true" />
    <inkscape:path-effect
       effect="spiro"
       id="path-effect4294"
       is_visible="true" />
    <inkscape:path-effect
       effect="spiro"
       id="path-effect4290"
       is_visible="true" />
    <inkscape:path-effect
       effect="spiro"
       id="path-effect4286"
       is_visible="true" />
    <inkscape:path-effect
       effect="spiro"
       id="path-effect4282"
       is_visible="true" />
    <inkscape:path-effect
       effect="spiro"
       id="path-effect4280"
       is_visible="true" />
  </defs>
  <sodipodi:namedview
     id="base"
     pagecolor="#ffffff"
     bordercolor="#666666"
     borderopacity="1.0"
     inkscape:pageopacity="0.0"
     inkscape:pageshadow="2"
     inkscape:zoom="1.0130695"
     inkscape:cx="262.51997"
     inkscape:cy="216.90721"
     inkscape:document-units="px"
     inkscape:current-layer="layer2"
     showgrid="false"
     inkscape:window-width="1301"
     inkscape:window-height="744"
     inkscape:window-x="65"
     inkscape:window-y="24"
     inkscape:window-maximized="1"
     units="px" />
  <metadata
     id="metadata7">
    <rdf:RDF>
      <cc:Work
         rdf:about="">
        <dc:format>image/svg+xml</dc:format>
        <dc:type
           rdf:resource="http://purl.org/dc/dcmitype/StillImage" />
        <dc:title></dc:title>
      </cc:Work>
    </rdf:RDF>
  </metadata>
  <g
     inkscape:groupmode="layer"
     id="layer2"
     inkscape:label="boceto"
     style="display:inline"
     transform="translate(0,-552.36216)">
    <g
       id="g4429"
       transform="matrix(1.2947666,0,0,1.2945417,-233.85036,120.15546)"
       inkscape:export-filename="/home/juan/Documentos/Olimo/Ejemplos/Animaciones GSAP/img/san_agustin.png"
       inkscape:export-xdpi="90"
       inkscape:export-ydpi="90"
       style="stroke:#cccccc">
      <path
         inkscape:original-d="m 330.16149,435.60693 c -7.34439,-3.82141 91.22336,-6.0472 83.73168,1.36149 -12.3661,12.22911 -28.48911,43.2347 -30.6928,65.5641 -1.18369,11.99405 -7.47533,9.85479 -8.70993,8.41693 -2.50804,-2.92095 -3.48558,-6.07395 -4.47049,-9.72508 -7.69913,-28.54106 -24.17859,-57.45894 -39.85846,-65.61744 z"
         inkscape:path-effect="#path-effect4327"
         sodipodi:nodetypes="ssssss"
         inkscape:connector-curvature="0"
         id="path4218"
         d="m 336.90849,437.20537 c 0.14354,-0.0216 0.28931,-0.0431 0.43724,-0.0645 1.62616,-0.23567 3.51192,-0.46233 5.60153,-0.67284 8.57487,-0.86384 19.68715,-1.37838 31.11534,-1.40898 5.62508,-0.0151 11.18216,0.0869 16.31988,0.29956 5.12472,0.2121 9.84652,0.53506 13.73523,0.96402 1.94801,0.21488 3.69602,0.45731 5.19162,0.72803 1.49592,0.27077 2.74209,0.57032 3.687,0.90028 0.47252,0.16501 0.87002,0.33772 1.18577,0.51836 0.31567,0.1806 0.55004,0.36936 0.69543,0.56634 0.14539,0.19698 0.20218,0.40263 0.16108,0.61734 -0.0295,0.15428 -0.10957,0.3133 -0.24348,0.47754 m -20.83291,-6.5913 c 2.32184,0.0956 4.50359,0.22869 6.49051,0.39858 1.99554,0.17063 3.79443,0.37835 5.33943,0.62229 1.54508,0.24395 2.83691,0.52421 3.81927,0.84033 0.49124,0.15808 0.90521,0.32516 1.23509,0.50128 0.32991,0.17612 0.57568,0.36126 0.73078,0.55552 0.1551,0.19428 0.21946,0.3976 0.18686,0.61014 -0.0326,0.21253 -0.16212,0.43417 -0.39465,0.66521 -3.07534,3.05563 -6.33325,7.28921 -9.49585,12.31789 -3.16546,5.03323 -6.20586,10.8146 -8.88852,16.97066 -2.28443,5.24223 -4.29477,10.72295 -5.88976,16.1818 m 2.78457,-14.72557 c -2.89054,5.46143 -5.37755,11.12067 -7.29547,16.6945 -2.09714,6.09471 -3.50382,12.06004 -4.00111,17.47428 -0.26728,2.91011 -0.84942,4.95091 -1.60027,6.36069 -0.74988,1.40797 -1.66487,2.17867 -2.58398,2.5345 -0.91975,0.35607 -1.8402,0.29569 -2.60638,0.0495 -0.76571,-0.24602 -1.37514,-0.67689 -1.67375,-1.05499 -2.4272,-3.07335 -3.32449,-6.35721 -4.21165,-10.18939 -0.89927,-3.88441 -1.93931,-7.79702 -3.10565,-11.68833 m 7.19532,16.58107 c -0.54259,-1.46647 -0.9318,-3.01462 -1.32539,-4.6765 -3.2813,-13.8548 -9.17356,-28.05113 -16.12351,-39.74961 -3.4701,-5.84104 -7.20136,-11.05249 -11.00913,-15.27702 -3.81011,-4.22713 -7.7043,-7.47565 -11.53448,-9.41934 -0.11215,-0.0569 -0.19889,-0.11392 -0.26096,-0.17093 -0.0621,-0.057 -0.0995,-0.114 -0.11282,-0.17071 -0.0133,-0.0567 -0.003,-0.1131 0.0319,-0.16874 0.0345,-0.0557 0.0926,-0.1105 0.17386,-0.16445 0.16247,-0.10791 0.41685,-0.21197 0.75737,-0.31184 0.34045,-0.0999 0.76681,-0.19546 1.2728,-0.28644 1.01155,-0.18188 2.34292,-0.34551 3.94193,-0.48697 1.3914,-0.12309 2.9879,-0.22959 4.7549,-0.31647 m -4.49289,-1.7934 c 0.89374,-0.11072 1.84982,-0.2188 2.86345,-0.32373 8.02686,-0.8309 19.20707,-1.41939 31.27773,-1.66181 5.94343,-0.11936 12.01751,-0.15231 17.68438,-0.0859 5.66376,0.0664 10.99076,0.23273 15.40516,0.52261 2.21343,0.14534 4.20926,0.32241 5.92379,0.53565 1.7154,0.21335 3.14883,0.46284 4.24332,0.75359 0.54724,0.14537 1.00898,0.30085 1.37941,0.46712 0.37069,0.16639 0.64847,0.34291 0.83066,0.5305 0.1822,0.1876 0.26737,0.38493 0.25808,0.59159 -0.009,0.20612 -0.11261,0.42125 -0.30926,0.64222 -1.25794,1.41357 -2.53528,3.08816 -3.80445,4.97613 m -11.70179,-3.07504 c 0.50482,0.0587 0.99922,0.11779 1.48222,0.17738 1.96243,0.24212 3.7365,0.49271 5.26457,0.7633 1.52852,0.27067 2.80768,0.56079 3.78342,0.88144 0.48759,0.16023 0.89859,0.32783 1.22633,0.50393 0.32772,0.17609 0.57184,0.36051 0.72572,0.55405 0.15384,0.19351 0.2173,0.39599 0.18375,0.60745 -0.0335,0.21143 -0.16407,0.43164 -0.39782,0.66021 -3.08816,3.01965 -6.34426,7.12861 -9.44092,11.83594 -3.10143,4.71456 -6.03109,10.00881 -8.53926,15.49016 -2.50895,5.48306 -4.5857,11.12879 -6.02711,16.60655 -0.51997,1.976 -0.95701,3.92918 -1.30183,5.84391 m -1.14747,-18.19318 c -1.468,3.31347 -2.76474,6.64795 -3.85883,9.95054 -2.06146,6.22262 -3.39351,12.30392 -3.79362,17.84256 -0.21502,2.97656 -0.75025,5.06386 -1.46458,6.51369 -0.71274,1.44663 -1.59889,2.24546 -2.49228,2.62629 -0.89355,0.3809 -1.79139,0.34267 -2.53446,0.11741 -0.74335,-0.22534 -1.33217,-0.63762 -1.61689,-1.00325 -2.3147,-2.97248 -3.10479,-6.16708 -3.84526,-9.88126 -1.25612,-6.30068 -2.84785,-12.66298 -4.69974,-18.82018 m 8.75246,17.91163 c -3.59678,-13.59802 -9.51408,-26.49179 -16.66721,-37.03808 -3.79228,-5.59118 -7.90346,-10.47775 -12.12201,-14.38408 -2.58067,-2.38967 -5.20516,-4.41573 -7.8223,-6.00811 m 15.43216,13.79983 c -1.00362,-1.2958 -2.02515,-2.53247 -3.06018,-3.70177 -3.75324,-4.24014 -7.68147,-7.59206 -11.59053,-9.67722 -0.11443,-0.061 -0.20311,-0.12149 -0.26677,-0.18132 -0.0637,-0.0598 -0.10234,-0.11905 -0.11678,-0.17773 -0.0145,-0.0587 -0.005,-0.11687 0.0285,-0.17471 0.0332,-0.0578 0.0899,-0.11534 0.1692,-0.17257 0.15861,-0.11444 0.40779,-0.22778 0.74085,-0.34006 0.3331,-0.1123 0.75,-0.2235 1.24412,-0.33376 0.98842,-0.22056 2.28465,-0.43706 3.83552,-0.65105 1.54972,-0.21383 3.35607,-0.42544 5.35919,-0.63534 7.51651,-0.78762 19.71073,-1.72708 30.27851,-2.40103 5.51306,-0.35159 11.09361,-0.66285 16.18455,-0.86684 4.20125,-0.16834 8.13189,-0.2665 11.57056,-0.25779 M 338.38,430.73827 c 1.15743,-0.0667 2.43298,-0.12439 3.80814,-0.17395 7.64847,-0.27564 19.71055,-0.33599 31.09334,-0.0915 5.85789,0.12584 11.726,0.33546 17.24572,0.65652 5.52221,0.32121 10.59615,0.74849 14.86871,1.29163 2.12799,0.27052 4.04009,0.56778 5.6831,0.89002 1.64226,0.32209 3.0137,0.66878 4.0575,1.03728 0.52196,0.18427 0.96227,0.37408 1.31408,0.56931 0.35191,0.19529 0.61529,0.39597 0.78482,0.60301 0.1697,0.20724 0.24522,0.42045 0.2251,0.6442 -0.0201,0.22339 -0.13568,0.45827 -0.34913,0.70631 -2.27082,2.63884 -4.63889,6.08648 -6.97365,10.15159 m -3.49407,-9.62676 c 1.92336,0.20932 3.6481,0.43789 5.13824,0.68904 1.6146,0.27213 2.95346,0.57074 3.96967,0.89973 0.50807,0.16448 0.93539,0.33654 1.27605,0.51661 0.3407,0.1801 0.59455,0.36813 0.75617,0.56473 0.16165,0.19663 0.23087,0.40162 0.20353,0.61601 -0.0273,0.21422 -0.15113,0.43811 -0.37623,0.6715 -2.96588,3.07503 -6.20993,7.33623 -9.45328,12.28664 -3.23831,4.94269 -6.52638,10.65152 -9.51123,16.59906 -2.99294,5.96366 -5.70996,12.22322 -7.82463,18.35861 -1.64663,4.77743 -2.92616,9.47319 -3.6991,13.91335 m 0.48308,-24.06415 c -0.57432,1.83851 -1.11864,3.66997 -1.62456,5.48209 -1.77224,6.34784 -3.08119,12.48351 -3.58548,18.01387 -0.27068,2.96845 -0.88488,5.05617 -1.65887,6.48899 -0.77517,1.43499 -1.71568,2.2241 -2.65665,2.59455 -0.94198,0.37086 -1.88524,0.32294 -2.67291,0.0878 -0.78725,-0.235 -1.41748,-0.65666 -1.7301,-1.02865 -2.54103,-3.02359 -3.55854,-6.27522 -4.60387,-10.06556 -3.6649,-13.28865 -9.27943,-26.97524 -15.60168,-38.75151 m 7.29744,20.4926 c -3.05226,-9.10127 -6.97088,-17.59083 -11.35666,-24.82716 -3.34561,-5.52011 -6.95892,-10.30444 -10.66825,-14.08331 -3.7068,-3.77629 -7.52603,-6.5652 -11.28618,-8.07553 -0.11024,-0.0443 -0.1953,-0.0908 -0.25611,-0.13936 -0.0608,-0.0485 -0.0972,-0.0988 -0.10961,-0.14969 -0.0124,-0.0509 -8.4e-4,-0.10191 0.0346,-0.15103 0.0355,-0.0492 0.0947,-0.0962 0.17746,-0.14062 0.16562,-0.0888 0.42348,-0.16604 0.76943,-0.23099 0.34569,-0.0649 0.77819,-0.11735 1.29159,-0.15709 1.02644,-0.0794 2.37611,-0.108 3.99691,-0.0832 1.62128,0.0247 3.51369,0.10283 5.62863,0.23688 2.58525,0.16386 5.49149,0.41057 8.64838,0.74474"
         style="fill:none;fill-rule:evenodd;stroke:#cccccc;stroke-width:0.77240705px;stroke-linecap:butt;stroke-linejoin:miter;stroke-opacity:1" />
      <path
         sodipodi:nodetypes="scss"
         inkscape:connector-curvature="0"
         id="path4220"
         d="m 418.1718,441.50988 c 0.0785,-12.89554 17.84435,-16.46888 22.02063,-5.28496 2.57518,6.89623 -3.32897,13.30957 -8.80825,14.31341 -5.24684,0.96126 -13.24486,-3.69438 -13.21238,-9.02845 z"
         style="fill:none;fill-rule:evenodd;stroke:#cccccc;stroke-width:0.77240705px;stroke-linecap:butt;stroke-linejoin:miter;stroke-opacity:1" />
      <path
         sodipodi:nodetypes="ssssss"
         inkscape:connector-curvature="0"
         id="path4220-3"
         d="m 302.25399,432.85878 c -0.3298,-4.51626 2.23603,-7.90696 5.27119,-9.90093 5.60846,-3.68452 15.63319,-3.38484 18.92628,3.6265 2.33963,4.98133 0.56794,8.81411 -1.23082,10.98517 -1.93099,2.33065 -5.76017,3.53879 -9.75427,4.31771 -4.78402,0.93297 -12.70448,-2.07327 -13.21238,-9.02845 z"
         style="fill:none;fill-rule:evenodd;stroke:#cccccc;stroke-width:0.77240705px;stroke-linecap:butt;stroke-linejoin:miter;stroke-opacity:1" />
      <path
         inkscape:original-d="m 330.0883,437.10769 c 0,0 -5.85074,6.69647 -9.89473,7.91579 -3.55083,1.07063 -7.28474,1.28938 -10.88421,0.39578 -3.47195,-0.86194 -7.49297,-3.08358 -10.09263,-5.54105 -2.18677,-2.06717 -3.34616,-5.16733 -3.95789,-8.11368 -0.60404,-2.90931 -1.03274,-6.29984 0.39579,-8.90526 1.82126,-3.32172 5.68887,-5.38905 9.30105,-6.53052 3.33365,-1.05345 7.06587,-0.71352 10.48842,0 2.74735,0.57276 5.39886,1.78369 7.71789,3.36421 1.54174,1.05077 3.00548,2.35352 3.95789,3.95789 0.59668,1.00514 0.98948,3.36421 0.98948,3.36421"
         inkscape:path-effect="#path-effect4349"
         sodipodi:nodetypes="csssssssssc"
         inkscape:connector-curvature="0"
         id="path4237"
         d="m 326.97352,445.1642 c -1.61117,1.3926 -3.44636,2.70374 -5.01879,3.15076 -3.43316,0.976 -7.0895,1.12685 -10.64208,0.18375 -3.41535,-0.90666 -7.4384,-3.17158 -10.04634,-5.63443 -2.19748,-2.07523 -3.39029,-5.1779 -4.04614,-8.11381 -0.64866,-2.90373 -1.14025,-6.27066 0.22108,-8.85826 1.73331,-3.29468 5.49254,-5.32546 8.98293,-6.42673 3.22808,-1.0185 6.83707,-0.63834 10.13826,0.11203 2.65047,0.60246 5.1993,1.84232 7.41851,3.44871 0.66225,0.47937 1.30851,1.00962 1.89979,1.59457 m -5.09243,19.78185 c -1.05048,0.68862 -2.09456,1.24019 -3.03715,1.50646 -3.60778,1.01915 -7.36986,1.20468 -10.97475,0.29171 -3.47877,-0.88103 -7.47474,-3.10833 -10.03032,-5.55442 -2.15315,-2.0609 -3.25813,-5.14084 -3.80696,-8.06446 -0.5407,-2.8803 -0.88819,-6.24776 0.6243,-8.81244 1.93455,-3.28034 5.92743,-5.27936 9.69257,-6.35998 3.46764,-0.99522 7.34447,-0.58917 10.92722,0.19394 1.77298,0.38753 3.51272,1.01949 5.16269,1.83225 m -18.12259,-2.28032 c 3.0907,-0.97454 6.56155,-0.69729 9.76954,-0.0768 2.67536,0.51744 5.27479,1.66903 7.55807,3.18628 0.18529,0.12313 0.36952,0.24996 0.5519,0.38058"
         style="fill:none;fill-rule:evenodd;stroke:#cccccc;stroke-width:0.77240705px;stroke-linecap:butt;stroke-linejoin:miter;stroke-opacity:1" />
      <path
         inkscape:original-d="m 413.99564,434.13927 c 0,0 4.34657,-6.55401 7.52,-8.70737 2.83104,-1.92103 6.28513,-3.10849 9.69684,-3.3642 3.94792,-0.2959 8.1731,0.33161 11.67578,2.17684 3.50969,2.07665 4.63843,5.13673 5.93684,8.70736"
         inkscape:path-effect="#path-effect4351"
         sodipodi:nodetypes="csscc"
         inkscape:connector-curvature="0"
         id="path4239"
         d="m 419.43863,432.40411 c 1.26278,-1.45547 2.61731,-2.84198 3.79769,-3.64807 2.94868,-2.01366 6.48827,-3.27288 9.95411,-3.57985 4.01299,-0.35544 8.25931,0.23575 11.75545,2.06593 0.41153,0.24215 0.78981,0.49828 1.13898,0.76744 m -29.25092,0.40008 c 0.76128,-0.84269 1.53045,-1.5821 2.24392,-2.08802 2.77788,-1.96984 6.1997,-3.1915 9.60436,-3.46768 3.93891,-0.31952 8.18334,0.30131 11.732,2.15583 1.77828,1.043 2.96256,2.33424 3.87488,3.81447 0.64431,1.04537 1.15328,2.18547 1.64019,3.39939"
         style="fill:none;fill-rule:evenodd;stroke:#cccccc;stroke-width:0.77240705px;stroke-linecap:butt;stroke-linejoin:miter;stroke-opacity:1" />
      <path
         inkscape:original-d="m 415.18301,457.29295 c 0,0 3.04197,3.64627 5.14526,4.55157 2.73733,1.1782 5.93634,1.04973 8.90526,0.79158 2.78968,-0.24256 5.77277,-0.64018 8.11368,-2.17684 2.39421,-1.57165 4.03033,-4.18307 5.34316,-6.72842 1.41635,-2.74606 2.66239,-5.75145 3.5621,-8.70737 1.00838,-3.31293 2.17684,-10.09262 2.17684,-10.09262"
         inkscape:path-effect="#path-effect4353"
         sodipodi:nodetypes="csssssc"
         inkscape:connector-curvature="0"
         id="path4241"
         d="m 421.5015,465.14986 c 0.1252,0.0598 0.248,0.1128 0.36771,0.15789 2.86958,1.08088 6.16524,0.86898 9.21706,0.54569 2.86207,-0.30318 5.9014,-0.75076 8.27291,-2.32097 2.42824,-1.60778 4.0784,-4.24289 5.38888,-6.80239 1.41463,-2.76291 2.63557,-5.76749 3.49735,-8.71937 0.0792,-0.27142 0.15913,-0.56603 0.23897,-0.87825 m -29.06166,16.15464 c 2.32538,0.58289 4.89196,0.42346 7.31685,0.18458 2.75991,-0.27189 5.7336,-0.69129 8.07482,-2.23854 2.39479,-1.58266 4.04954,-4.19869 5.39179,-6.73816 1.44713,-2.7379 2.74585,-5.73383 3.70644,-8.66427 0.53283,-1.62548 1.1419,-4.14757 1.61193,-6.21573 0.18456,-0.8121 0.35042,-1.56685 0.48291,-2.17988"
         style="fill:none;fill-rule:evenodd;stroke:#cccccc;stroke-width:0.77240705px;stroke-linecap:butt;stroke-linejoin:miter;stroke-opacity:1" />
      <path
         inkscape:original-d="m 349.08619,472.53084 c 0,0 -4.00616,-6.45954 -8.70737,-10.29052 -2.66695,-2.17327 -6.8504,-7.55659 -10.29051,-7.52 -2.37826,0.0253 -6.03523,2.47709 -8.31158,3.16631 -3.78807,1.14693 -8.12858,1.28029 -11.87368,0 -4.89417,-1.67311 -8.88193,-5.59039 -12.26947,-9.49894 -3.6761,-4.24148 -6.69905,-9.268 -8.31158,-14.64421 -1.7094,-5.69918 -1.80759,-11.89292 -1.18737,-17.81052 0.65738,-6.27211 2.10427,-12.68147 5.14526,-18.20631 2.47779,-4.50163 6.28253,-8.26229 10.29053,-11.47789 5.66722,-4.54679 12.15494,-8.24399 18.99788,-10.68631 5.04565,-1.80085 11.38803,0.22222 15.83158,-2.77053 3.09696,-2.08581 1.48367,-6.50151 4.74947,-8.31157 12.05133,-5.65349 50.71155,-6.01548 59.3684,3.95789 1.29397,1.37614 1.33598,4.31214 2.77052,5.54105 4.37649,3.74914 11.31499,2.50604 16.62316,4.74947 6.58691,2.78387 13.58654,5.58912 18.6021,10.68632 4.97011,5.05101 8.5192,11.74081 10.29052,18.60209 1.41805,5.49289 1.17767,11.46955 0,17.01895 -0.26974,1.27105 -1.58316,3.5621 -1.58316,3.5621"
         inkscape:path-effect="#path-effect4325"
         sodipodi:nodetypes="csssssssssssccsssssc"
         inkscape:connector-curvature="0"
         id="path4243"
         d="m 346.78317,470.72862 c -1.31075,-1.79735 -2.89709,-3.69707 -4.62007,-5.21546 -1.28115,-1.12902 -2.92808,-3.07323 -4.69236,-4.72747 -0.88257,-0.82754 -1.79234,-1.58186 -2.69685,-2.13001 -0.90413,-0.54792 -1.80082,-0.88835 -2.65382,-0.88843 -1.17885,-1.1e-4 -2.67838,0.6045 -4.17117,1.29554 -1.49193,0.69063 -2.98011,1.46915 -4.12268,1.80984 -3.80342,1.1341 -8.19451,1.27322 -12.00933,0.0106 -4.97845,-1.6477 -9.11273,-5.52639 -12.65054,-9.38013 -3.844,-4.18725 -7.06302,-9.1459 -8.87478,-14.46715 -0.72615,-2.13277 -1.22304,-4.33828 -1.53751,-6.57424 m 3.81852,15.46458 c -2.53559,-3.50636 -4.56424,-7.36134 -5.77928,-11.39098 -1.73094,-5.74062 -1.78315,-11.9279 -1.06444,-17.81564 0.76127,-6.23648 2.37663,-12.57897 5.6272,-18.01075 2.65202,-4.43158 6.65492,-8.09218 10.89302,-11.21214 1.80554,-1.3292 3.69026,-2.57915 5.64076,-3.73945 m -14.85921,9.48391 c 1.8142,-2.26957 3.92554,-4.32932 6.12608,-6.21476 5.4684,-4.68538 11.88727,-8.54163 18.7555,-11.17963 2.5274,-0.97074 5.40362,-0.99676 8.20394,-1.176 2.80095,-0.17927 5.54451,-0.51047 7.81007,-2.09932 0.79112,-0.55482 1.28586,-1.25044 1.63728,-2.0165 0.35117,-0.76555 0.55888,-1.6012 0.77229,-2.42852 0.21342,-0.82736 0.43251,-1.6465 0.80655,-2.37934 0.37436,-0.73348 0.90328,-1.37992 1.74188,-1.87201 1.54582,-0.77719 3.51797,-1.4895 5.80486,-2.12841 2.28656,-0.63882 4.889,-1.20455 7.69157,-1.6872 1.36764,-0.23552 2.78345,-0.45134 4.23328,-0.64609 m -14.08515,3.83747 c 1.40287,-0.49198 3.06458,-0.92535 4.92282,-1.2985 2.31491,-0.46486 4.93907,-0.83705 7.74589,-1.11071 5.60528,-0.54649 11.99082,-0.70542 18.18959,-0.40162 6.21378,0.30454 12.28204,1.07506 17.35184,2.40534 2.53438,0.66501 4.81815,1.46964 6.74258,2.42434 1.92428,0.95463 3.48908,2.05923 4.58417,3.32385 0.65426,0.69819 0.99733,1.78855 1.35868,2.86143 0.36138,1.07298 0.74043,2.12713 1.46671,2.75345 2.21523,1.91035 5.07696,2.57716 8.06377,3.06487 2.9861,0.4876 6.1021,0.79618 8.81445,1.98097 3.36878,1.47154 6.85929,2.96417 10.1759,4.76368 m -27.86632,-10.47895 c 1.95183,1.25993 4.33628,1.71728 6.8296,2.03849 2.91181,0.37512 5.96607,0.56503 8.64778,1.63472 6.65906,2.65616 13.88107,5.33638 19.28237,10.32317 5.33759,4.92797 9.43071,11.50699 11.82829,18.2092 1.30417,3.6457 1.88308,7.51564 1.95124,11.29888 m -109.91458,51.88638 c -1.15859,-1.19817 -2.43454,-2.40198 -3.74225,-3.417 -1.36711,-1.06113 -3.11541,-2.92856 -4.93643,-4.54646 -0.91002,-0.80851 -1.84073,-1.55478 -2.75522,-2.09905 -0.91551,-0.54489 -1.81541,-0.88783 -2.66893,-0.89355 -1.1777,-0.008 -2.67237,0.57906 -4.13795,1.23466 -1.47014,0.65766 -2.91195,1.38451 -4.02145,1.68473 -3.68701,0.99765 -7.8754,0.91943 -11.43621,-0.61069 -4.67826,-2.0103 -8.30805,-6.31635 -11.35028,-10.72604 -3.28254,-4.75801 -5.8428,-10.40623 -6.95083,-16.44916 -0.31935,-1.74169 -0.51557,-3.52494 -0.60658,-5.33627 m -0.0101,14.51985 c -2.60126,-3.45402 -4.66728,-7.29335 -5.88858,-11.34033 -1.72735,-5.72389 -1.73478,-11.94575 -0.93734,-17.92044 0.84428,-6.32558 2.58458,-12.81409 5.98895,-18.42756 2.77719,-4.57934 6.92995,-8.41952 11.33464,-11.73719 2.68043,-2.01895 5.52991,-3.88471 8.50782,-5.56475 m -9.82265,12.37307 c 1.72531,-1.79399 3.59645,-3.43425 5.49795,-4.94186 5.72835,-4.54174 12.14579,-8.11658 18.81385,-10.33549 2.4636,-0.8198 5.21961,-0.66259 7.89873,-0.64144 2.67828,0.0212 5.26252,-0.0976 7.37224,-1.46125 0.73303,-0.4738 1.17648,-1.09925 1.47346,-1.79072 0.29737,-0.69238 0.44784,-1.44964 0.603,-2.19871 0.15515,-0.74902 0.31472,-1.48758 0.6301,-2.14218 0.31482,-0.65344 0.78537,-1.22253 1.55065,-1.61651 1.41513,-0.60225 3.22114,-1.0947 5.30888,-1.46666 2.08843,-0.37207 4.45434,-0.62289 6.99526,-0.74498 0.41298,-0.0198 0.83049,-0.0363 1.25213,-0.0493 m -9.30255,6.55757 c 1.53334,-0.6545 3.46257,-1.23016 5.67767,-1.7264 2.26963,-0.50844 4.84456,-0.93454 7.5972,-1.27379 5.48468,-0.67594 11.77249,-1.01876 17.8228,-0.94309 6.07053,0.0759 12.00623,0.57271 16.92217,1.62575 2.4621,0.5274 4.67387,1.19513 6.532,2.02184 1.85803,0.82665 3.36004,1.81144 4.39897,2.96729 0.62228,0.63608 0.92688,1.65338 1.24722,2.64687 0.32015,0.99295 0.65985,1.973 1.35062,2.53049 2.11278,1.70513 4.8491,2.14998 7.70873,2.38858 2.8627,0.23885 5.81584,0.27295 8.39019,1.18723 2.06341,0.73283 4.16964,1.46017 6.23838,2.26254 m -25.51921,-12.06263 c 0.1671,0.29907 0.36089,0.56481 0.59365,0.78333 2.12941,1.99915 4.938,2.74456 7.85824,3.29277 2.922,0.54854 5.99653,0.90429 8.66291,2.11464 6.62594,3.00771 13.78439,6.01159 19.01747,11.29353 5.18913,5.23758 9.05293,12.13533 11.18351,19.2425 1.70383,5.68365 1.7991,11.9106 0.97506,17.74307 -0.0879,0.62225 -0.38666,1.48665 -0.6776,2.22791 m -103.94211,45.47669 c -1.43078,-1.97253 -3.33267,-4.28263 -5.43083,-6.04603 -1.27529,-1.07181 -2.91255,-2.94312 -4.66567,-4.54528 -0.87666,-0.80117 -1.78125,-1.53449 -2.67983,-2.06554 -0.89838,-0.53093 -1.79011,-0.85919 -2.63799,-0.84932 -1.17189,0.0136 -2.66187,0.633 -4.14323,1.33265 -1.48307,0.70047 -2.95418,1.47959 -4.08979,1.82034 -3.77335,1.13223 -8.12453,1.23873 -11.89745,-0.0764 -4.92935,-1.71822 -8.98266,-5.69648 -12.44578,-9.67653 -3.75707,-4.31788 -6.87348,-9.43265 -8.56626,-14.90082 -0.70983,-2.29294 -1.16558,-4.6645 -1.4207,-7.06596 m 2.40582,14.08126 c -2.38788,-3.43269 -4.33884,-7.33096 -5.48584,-11.47872 -1.56583,-5.66236 -1.60556,-11.89968 -0.98626,-17.91968 0.65648,-6.38135 2.03576,-12.9719 4.97683,-18.72575 2.39332,-4.68227 6.1002,-8.67788 9.99606,-12.13499 5.51479,-4.89371 11.83837,-8.99148 18.56043,-11.85109 0.74782,-0.31813 1.52637,-0.54967 2.32317,-0.72515 m -24.16455,9.66057 c 5.94181,-4.47627 12.64022,-7.97347 19.67433,-10.08797 2.60217,-0.78224 5.50377,-0.5808 8.35468,-0.51007 2.85474,0.0708 5.59198,0.004 7.89262,-1.30205 0.79728,-0.45266 1.29858,-1.06141 1.65423,-1.73313 0.35572,-0.67184 0.56861,-1.41235 0.78582,-2.13929 0.21719,-0.72686 0.44073,-1.44784 0.81779,-2.07999 0.3767,-0.63155 0.91089,-1.18155 1.75204,-1.54849 1.55328,-0.55531 3.5307,-0.98806 5.82777,-1.2855 2.29775,-0.29753 4.90811,-0.45883 7.7311,-0.47472 5.66585,-0.0319 12.09641,0.52177 18.55069,1.68245 1.46967,0.26429 2.93597,0.55924 4.38945,0.88443 m -17.84395,-5.7164 c 4.99027,-0.3252 10.63584,-0.27364 16.19552,0.20914 5.95022,0.51669 11.79391,1.52637 16.68499,3.09309 2.44219,0.78229 4.64197,1.70207 6.48886,2.7637 1.84583,1.06101 3.34299,2.26591 4.37296,3.6198 0.61984,0.75273 0.91619,1.89668 1.23294,3.03801 0.31692,1.14194 0.64728,2.25021 1.3352,2.93602 2.08204,2.07566 4.83232,2.92757 7.64942,3.6145 2.81706,0.68692 5.77244,1.22065 8.2825,2.62101 0.84181,0.46965 1.6887,0.94235 2.53641,1.42439 m -14.45132,-1.89956 c 1.37506,0.41867 2.84442,0.65221 4.34161,0.84026 2.95259,0.37086 5.99801,0.56411 8.634,1.64494 6.53385,2.67906 13.40193,5.44241 18.22308,10.54033 4.77922,5.05357 8.05385,11.77373 9.50351,18.68769 0.89618,4.27423 0.7763,8.83402 -0.0223,13.26882"
         style="fill:none;fill-rule:evenodd;stroke:#cccccc;stroke-width:0.77240705px;stroke-linecap:butt;stroke-linejoin:miter;stroke-opacity:1" />
      <path
         inkscape:original-d="m 396.74161,464.61505 c 6.46155,-4.04368 13.15438,-7.71266 23.45219,-5.54105"
         inkscape:path-effect="#path-effect4355"
         sodipodi:nodetypes="cc"
         inkscape:connector-curvature="0"
         id="path4264"
         d="m 403.92454,464.85178 c 1.54914,-0.78331 3.14573,-1.47172 4.82447,-2.01192 1.25839,-0.40493 2.56305,-0.72662 3.92816,-0.94241 m -10.88536,-0.40068 c 0.90386,-0.41006 1.83485,-0.77833 2.80024,-1.0928 3.31088,-1.0785 7.02993,-1.52571 11.45896,-0.85007"
         style="fill:none;fill-rule:evenodd;stroke:#cccccc;stroke-width:0.77240705px;stroke-linecap:butt;stroke-linejoin:miter;stroke-opacity:1" />
      <path
         inkscape:original-d="m 389.85249,488.36241 c 0,0 37.99578,23.35157 46.30735,42.74525 8.31158,19.39367 8.40051,27.69759 8.31158,41.95367 -0.0757,12.13515 -0.39579,28.10104 -7.52,35.62103 -7.12421,7.52 -16.22736,10.29053 -25.72631,11.87368 -9.49894,1.58316 -12.16063,3.75023 -17.01894,4.35369 -5.65022,0.70183 -20.97923,6.82346 -27.30946,-1.58316 -1.14757,-1.52398 -13.69971,2.02267 -24.14315,-0.39579 -14.68265,-3.40016 -42.11713,-2.98006 -56.59787,-16.22736 -7.30324,-6.68117 -9.92927,-17.83599 -10.68632,-27.70525 -0.89856,-11.71401 3.93656,-23.2451 7.52,-34.43368 3.06462,-9.56869 11.87368,-27.70525 11.87368,-27.70525 2.20061,-5.13476 13.27806,-12.94934 15.83157,-16.62315 3.2726,-4.7084 6.61334,-10.09871 6.72842,-15.83157 0.10475,-5.2181 -2.13876,-10.68643 -5.54105,-14.64421 -3.15761,-3.67315 -7.85944,-6.51868 -12.66526,-7.12421 -7.58851,-0.95614 -15.73894,1.78765 -22.1642,5.93684 -3.15038,2.03439 -7.12421,8.70737 -7.12421,8.70737 l -11.87368,24.14315 -7.51999,20.18525 -4.74948,23.74736 -2.37473,22.55999 c 0,0 -0.79158,6.72842 1.97895,8.31158 l 2.77052,1.58316 c 10.86149,4.44017 18.75997,2.95433 26.51789,1.18737"
         inkscape:path-effect="#path-effect4282;#path-effect4329"
         sodipodi:nodetypes="csssssssssssssssscccccscc"
         inkscape:connector-curvature="0"
         id="path4266"
         d="m 397.47688,494.14336 c 18.74647,7.03433 33.24209,21.91771 40.16338,40.09709 2.61133,6.8589 4.16405,14.05569 5.15297,21.36911 m -8.05563,-21.15377 c 4.49327,12.31901 6.13337,25.92262 7.53497,39.47081 0.65281,6.31027 1.26301,12.69515 0.60971,19.00381 -0.43822,4.23169 -1.48758,8.44598 -3.33721,12.17904 m 1.13352,-15.18296 c -0.12197,0.92095 -0.26682,1.83978 -0.43881,2.75585 -1.14097,6.07703 -3.58063,12.1078 -7.92401,16.51187 -3.32444,3.37089 -7.60077,5.63741 -12.01368,7.24657 -4.41377,1.60946 -8.99237,2.60224 -13.4872,3.77329 -5.49832,1.43249 -10.93804,3.14827 -16.59007,3.57646 -2.1588,0.16354 -4.31983,0.13793 -6.48387,-0.0166 m 18.65572,-1.84684 c -3.05633,1.04447 -6.16031,1.95574 -9.36417,2.45275 -8.76645,1.35994 -17.76685,-0.44599 -26.77021,-1.12886 -7.9405,-0.60226 -15.96479,-0.3313 -23.95195,-0.15255 -10.04303,0.22476 -20.13013,0.29404 -29.73274,-1.60041 -0.98756,-0.19483 -1.97069,-0.41213 -2.94648,-0.65264 m 24.55524,0.93999 c -8.25299,-0.24009 -16.2722,-0.80271 -23.87765,-2.65968 -9.61485,-2.3476 -18.6905,-6.94781 -24.71435,-14.59372 -6.03133,-7.65541 -8.61346,-18.02409 -7.58545,-28.51496 0,-10e-6 0.007,-0.0747 0.007,-0.0747 m 1.66827,26.7636 c -3.72706,-6.01947 -5.63465,-13.18831 -5.66255,-20.52755 -0.0461,-12.11659 4.72881,-24.22548 9.14244,-36.64875 2.43627,-6.85751 4.83495,-14.00665 8.15112,-20.74082 m -12.62898,15.0207 c 2.52683,-9.01264 5.2954,-18.26835 11.23524,-25.83223 4.83444,-6.15623 11.52459,-10.84317 16.82978,-16.88669 4.05289,-4.61695 7.29435,-10.17721 7.95562,-16.13689 0.22554,-2.03263 0.13637,-4.06616 -0.22404,-6.0284 m 1.07315,18.24569 c 1.78637,-3.22199 2.95252,-6.69256 3.08342,-10.27184 0.19447,-5.31768 -1.97999,-10.56222 -5.69042,-14.3745 -3.41595,-3.50972 -8.09168,-5.82843 -13.11691,-6.5752 -8.06816,-1.19897 -16.81733,1.72935 -23.41917,7.37301 -1.375,1.17543 -2.66413,2.46278 -3.85256,3.84409 m 17.11759,-5.02148 c -3.00448,1.16083 -5.8469,2.84529 -8.32266,4.95348 -2.84912,2.42613 -5.25476,5.38456 -7.03753,8.66359 -3.94453,7.94426 -8.01309,15.73009 -12.15228,23.39316 -2.65181,6.42046 -5.34891,12.76223 -8.06388,19.04364 -1.6907,6.89655 -3.40097,13.72705 -5.09946,20.51246 m 3.61451,-28.63458 c -0.36215,0.96488 -0.7221,1.92826 -1.0799,2.89025 -1.70802,8.26399 -3.27044,16.43408 -4.71627,24.57661 -0.66293,7.73238 -1.22358,15.44058 -1.70578,23.1791 -0.0499,0.80057 -0.12546,1.5985 -0.22176,2.3932 -0.0962,0.79383 -0.19709,1.59724 -0.12919,2.40194 0.068,0.80554 0.33056,1.61389 0.8268,2.27151 0.49646,0.65792 1.20758,1.12095 1.92563,1.53556 0.97558,0.5633 1.95252,1.12764 2.93075,1.69319 5.99815,0.45848 12.03349,0.95148 18.09575,1.50248 m 132.43664,-82.80061 c 18.01149,8.15674 31.97565,22.42389 38.98132,39.55741 3.1939,7.81121 4.9666,16.04374 6.11775,24.41441 m -9.43755,-24.26939 c 4.60556,12.11691 6.13193,24.66835 7.03171,36.82489 0.45032,6.08412 0.75337,12.17663 -0.26693,18.1092 -1.0193,5.92677 -3.46871,11.77944 -7.89149,15.99694 -3.3881,3.23085 -7.76042,5.34819 -12.294,6.82226 -0.20076,0.0653 -0.40188,0.12936 -0.60335,0.19233 m 14.82098,-17.26318 c -1.10769,2.90309 -2.64902,5.62115 -4.69401,7.96849 -3.12872,3.59128 -7.29104,6.16038 -11.61376,8.13739 -4.31879,1.97522 -8.87717,3.42356 -13.33594,5.12142 -5.49661,2.09306 -10.87449,4.56951 -16.53366,5.92058 -8.78765,2.09794 -17.57391,1.36312 -26.19263,2.03659 -0.17117,0.0134 -0.3423,0.0273 -0.5134,0.0418 m 23.95146,-4.10577 c -7.02246,0.20983 -14.02251,-0.69669 -20.99083,-0.95056 -8.26158,-0.30098 -16.52947,0.31995 -24.83051,0.91947 -9.95792,0.71918 -19.98517,1.39686 -29.92762,0.50287 m 17.31129,3.7484 c -5.85477,-0.38497 -11.73353,-1.04903 -17.55044,-2.382 -10.00665,-2.29304 -19.90374,-6.7265 -27.14549,-14.12971 -7.2338,-7.39511 -11.40375,-17.44777 -12.22443,-27.49628 -0.0183,-0.22416 -0.035,-0.44819 -0.0503,-0.67207 m 3.97774,15.49032 c -2.60239,-5.29072 -3.95799,-11.16767 -4.02293,-17.04956 -0.12771,-11.56676 4.431,-22.68568 8.5468,-33.66502 3.50492,-9.34974 6.88662,-19.12415 13.70548,-26.68529 1.78631,-1.98075 3.77729,-3.77231 5.85002,-5.49375 m -10.49496,23.45493 c 2.08839,-5.35281 4.55222,-10.60322 8.11039,-15.29824 4.70172,-6.20397 11.06198,-11.08088 15.89995,-17.4322 3.68697,-4.84028 6.50386,-10.73194 6.67478,-17.03498 0.15682,-5.78309 -1.99089,-11.61956 -5.61045,-16.13088 -3.33086,-4.15149 -7.87169,-7.20782 -12.70284,-8.77308 -2.84829,-0.92282 -5.7735,-1.31466 -8.62888,-1.24824 m 21.57114,11.8959 c -0.79903,-1.40181 -1.76135,-2.71237 -2.86277,-3.89155 -3.29185,-3.52424 -7.78541,-5.89842 -12.57366,-6.73027 -7.69032,-1.33604 -15.92358,1.38168 -21.88848,6.77721 -2.8449,2.57334 -5.21343,5.7258 -6.92966,9.24648 -3.7864,8.51866 -7.53059,17.14798 -11.22574,25.93462 -1.7434,5.5575 -3.46868,11.17313 -5.17431,16.85735 m 3.23517,-31.06145 c -1.81057,3.76505 -3.59654,7.50697 -5.35675,11.22753 -2.3803,6.71597 -4.68364,13.36813 -6.90403,19.96559 -1.2613,7.76856 -2.41774,15.46799 -3.46078,23.11126 -0.28565,7.26473 -0.4718,14.48017 -0.55144,21.65699 -0.004,0.40566 -0.0166,0.81031 -0.0354,1.21382 m -1.57488,-19.39318 c -0.44736,6.15179 -0.90442,12.33232 -1.34775,18.52627 -0.0548,0.76577 -0.13594,1.52876 -0.23835,2.28833 -0.10232,0.75882 -0.20992,1.52642 -0.14914,2.29581 0.0608,0.76968 0.31572,1.5423 0.80393,2.16367 0.48909,0.62246 1.19051,1.04772 1.90028,1.4254 0.96357,0.51273 1.92786,1.02563 2.89298,1.53863 8.61768,0.25638 17.28571,0.51845 26.05701,0.75166 m 122.58411,-82.01983 c 18.74918,7.28301 33.95005,21.97159 41.37429,39.64269 4.29293,10.21798 6.03083,21.12193 7.01081,31.89884 m -5.94012,-31.11019 c 3.11243,10.55141 4.40072,22.27848 5.55074,34.14621 0.61585,6.35534 1.20113,12.83989 0.52968,19.27772 -0.67205,6.44358 -2.69425,12.86151 -6.69105,17.72351 -3.04713,3.70674 -7.09882,6.34973 -11.2904,8.33249 -3.21243,1.51958 -6.55017,2.68951 -9.87589,3.85399 m 20.5361,-8.11961 c -0.66152,0.92567 -1.38822,1.80407 -2.18374,2.62488 -3.27414,3.37824 -7.54884,5.62541 -11.99623,7.1889 -4.44931,1.56416 -9.09555,2.48409 -13.68417,3.55635 -5.60721,1.31028 -11.20358,2.86526 -17.00638,3.09116 -9.1112,0.3547 -18.14646,-2.557 -27.29163,-4.57525 -5.80896,-1.28199 -11.67072,-2.1951 -17.49953,-3.12702 m 29.59214,9.96562 c -3.16727,-0.40069 -6.3159,-0.82959 -9.44577,-1.12003 -8.08028,-0.74981 -16.09786,-0.57511 -24.01281,-0.50311 -9.94914,0.0905 -19.86201,0.008 -29.36209,-2.17644 -9.49181,-2.18265 -18.67618,-6.64111 -25.02913,-14.14053 -1.07835,-1.27296 -2.06387,-2.62438 -2.95541,-4.04129 m 25.52124,8.17404 c -7.59643,-2.13351 -14.84411,-5.86035 -20.37768,-11.51837 -6.84132,-6.99519 -10.63358,-16.62626 -11.0367,-26.04168 -0.463,-10.81409 3.26869,-20.97935 6.47288,-30.58026 m -4.76666,22.57015 c 1.23235,-8.06458 3.88356,-15.91357 6.21843,-23.65449 2.87164,-9.52053 5.42051,-19.34766 11.32094,-27.1216 3.16544,-4.17054 7.16994,-7.56922 10.86841,-11.20072 m -10.47342,11.5209 c 4.67673,-5.92045 10.75704,-10.50766 15.46113,-16.25662 3.75396,-4.5878 6.64263,-10.09643 6.89361,-15.94723 0.23,-5.36186 -1.84024,-10.69855 -5.3783,-14.65517 -3.25729,-3.64263 -7.7192,-6.14088 -12.47329,-7.11889 -5.53714,-1.1391 -11.36223,-0.17433 -16.3896,2.33892 m 23.6867,0.97768 c -1.8091,-0.7864 -3.71277,-1.36855 -5.6576,-1.72317 -7.99972,-1.45867 -16.49165,1.01143 -22.70364,6.02397 -2.96348,2.39128 -5.44938,5.33148 -7.28767,8.6089 -4.07652,7.94048 -8.13733,15.8166 -12.25481,23.66475 -0.8834,2.20265 -1.77089,4.40328 -2.66386,6.6026 m 0.65067,-14.48508 c -1.41591,2.94031 -2.82041,5.84798 -4.21352,8.72476 -2.45835,6.72899 -4.85958,13.30296 -7.20398,19.74145 -1.40074,7.58982 -2.72965,15.00838 -3.98717,22.28347 -0.48655,6.91984 -0.91045,13.7138 -1.27207,20.40468 -0.0374,0.69219 -0.10069,1.38032 -0.18484,2.06376 -0.084,0.68208 -0.17292,1.37302 -0.0931,2.06368 0.0445,0.38523 0.14952,0.77072 0.32149,1.13013 m -1.32845,-24.80178 c -0.64103,4.87355 -1.23334,9.82277 -1.78476,14.83632 -0.0852,0.77427 -0.19586,1.54701 -0.32716,2.31773 -0.13131,0.77073 -0.26706,1.54926 -0.23381,2.33312 0.0333,0.78386 0.26098,1.57073 0.72304,2.20875 0.46198,0.63791 1.13942,1.08224 1.82267,1.47822 0.92904,0.53843 1.85968,1.07939 2.79184,1.62277 6.28848,0.37125 12.62927,0.82599 19.00773,1.34302"
         style="fill:none;fill-rule:evenodd;stroke:#cccccc;stroke-width:0.77240705px;stroke-linecap:butt;stroke-linejoin:miter;stroke-opacity:1" />
      <path
         inkscape:original-d="m 354.23145,470.55189 c 0,0 -14.24841,5.54105 -17.81052,18.6021 -3.5621,13.06104 -1.71875,12.96596 2.77052,16.22736 3.5223,2.5589 13.88008,0.48813 18.20632,0 4.70676,-0.53107 11.0821,-3.5621 11.0821,-3.5621"
         inkscape:path-effect="#path-effect4343"
         sodipodi:nodetypes="csssc"
         inkscape:connector-curvature="0"
         id="path4268"
         d="m 350.02754,477.13015 c -0.56733,0.37274 -1.15776,0.78496 -1.7598,1.23817 -3.79925,2.86008 -8.09091,7.37992 -9.81385,13.83229 -0.86502,3.2395 -1.41592,5.65094 -1.68028,7.53144 -0.2633,1.87294 -0.23598,3.18295 0.0443,4.19166 0.28003,1.00766 0.81145,1.70951 1.54875,2.36453 0.73776,0.65543 1.67909,1.26202 2.78102,2.08228 0.86389,0.64306 2.15062,0.99872 3.65476,1.16478 1.50413,0.16607 3.2283,0.14285 4.97091,0.0266 3.48649,-0.23249 7.05196,-0.83675 9.15005,-1.05916 0.69351,-0.0735 1.4238,-0.20415 2.16326,-0.37275 m -16.56561,-32.41842 c -0.087,0.061 -0.17414,0.12282 -0.2615,0.18535 -4.10587,2.93845 -8.60832,7.51213 -10.3682,14.02413 -0.87808,3.24915 -1.40848,5.71215 -1.64325,7.58766 -0.23566,1.88265 -0.17886,3.20559 0.12597,4.21793 0.30523,1.01373 0.85996,1.72069 1.62729,2.38126 0.76728,0.66053 1.74684,1.27444 2.90001,2.10174 0.90462,0.64898 2.24307,1.01162 3.81706,1.18604 1.57312,0.17432 3.38305,0.16054 5.22179,0.0542 3.67842,-0.21277 7.48082,-0.79473 9.72522,-1.00296 2.4317,-0.2256 5.31715,-1.06296 7.59252,-1.84088 0.9213,-0.31498 1.74464,-0.621 2.39896,-0.87398 m -20.03566,-29.91622 c -1.0013,0.5618 -2.09634,1.23347 -3.22256,2.02128 -4.19581,2.93501 -8.77581,7.45129 -10.61336,13.82964 -0.91589,3.17915 -1.47205,5.57488 -1.7259,7.39589 -0.25476,1.82762 -0.2107,3.10878 0.0839,4.08639 0.295,0.97891 0.84153,1.65627 1.59909,2.28055 0.75746,0.62419 1.72632,1.19582 2.86572,1.96723 0.89503,0.60596 2.21855,0.91341 3.7779,1.01935 1.55907,0.10592 3.34792,0.0101 5.16889,-0.18568 3.6399,-0.39138 7.39773,-1.1849 9.61403,-1.52384 1.22693,-0.18765 2.56402,-0.54389 3.87953,-0.9735"
         style="fill:none;fill-rule:evenodd;stroke:#cccccc;stroke-width:0.77240705px;stroke-linecap:butt;stroke-linejoin:miter;stroke-opacity:1" />
      <path
         inkscape:original-d="m 401.33038,466.98978 c 0,0 8.29985,2.21972 15.03999,6.72842 13.00404,8.69883 16.65415,10.96796 20.58105,15.83158 4.18351,5.18144 9.14209,9.38876 12.66526,15.03999 4.44128,7.12389 7.64918,15.69065 11.0821,23.35157 2.7809,6.20588 5.01334,12.72241 6.33263,19.39368 1.02665,5.19147 0.86929,10.54913 1.18737,15.83157 0.34927,5.8004 0.79158,11.60383 0.79158,17.41473 0,8.71636 -0.34185,17.44685 -1.18737,26.1221 -0.77645,7.9666 -1.93467,15.91021 -3.5621,23.74736 -1.66567,8.02129 -1.97895,13.06105 -6.33263,23.74736 -1.45123,3.5621 -2.19349,7.50383 -4.35369,10.68631 -2.56776,3.78293 -9.89473,9.49894 -9.89473,9.49894 l -2.37474,0.79158"
         inkscape:path-effect="#path-effect4286;#path-effect4333"
         sodipodi:nodetypes="cssssssssssscc"
         inkscape:connector-curvature="0"
         id="path4270"
         d="m 408.95608,472.76874 c 3.21082,1.18363 6.31023,2.57277 9.28087,4.15429 7.74922,4.12555 14.5933,9.5425 20.70407,15.608 4.62422,4.58998 8.8635,9.58637 12.23716,15.16465 4.23528,7.00296 7.02874,14.78206 9.80943,22.50671 M 449.94058,510.0871 c 3.14736,5.88995 5.64145,12.2596 8.23945,18.61731 2.58223,6.31913 5.30162,12.71732 6.66985,19.503 1.06228,5.26834 1.29006,10.67821 1.70722,16.05673 0.38993,5.02745 0.94858,10.06074 1.3581,15.10617 m -3.82214,-15.8724 c -0.001,0.19857 -0.002,0.39709 -0.002,0.59555 -0.0116,5.70595 0.27116,11.39558 0.32134,17.07912 0.0753,8.5303 -0.37411,17.02691 -1.11043,25.4077 -0.6761,7.6955 -1.59491,15.30504 -3.01294,22.73384 -0.37429,1.96086 -0.78318,3.90819 -1.22262,5.84213 m 5.47533,-15.70006 c -0.37189,3.52216 -0.84962,7.01392 -1.44368,10.47313 -1.41218,8.22298 -3.47953,16.25025 -5.83431,24.16573 -1.1083,3.7255 -2.29528,7.46019 -4.24794,10.80631 -1.17588,2.01498 -2.62476,3.86516 -4.2856,5.49455 M 407.03432,468.90189 c 2.35894,1.03335 4.69219,2.18932 6.98694,3.46155 7.44142,4.1256 14.45237,9.45868 21.06858,15.3679 5.01202,4.47644 9.82265,9.30649 13.9183,14.69835 5.36086,7.05749 9.43758,14.99867 13.63662,22.70284 0.83005,1.52292 1.66922,3.04522 2.49373,4.57146 m -12.20385,-13.71197 c 2.23485,5.06762 4.19589,10.21938 6.266,15.22741 2.57824,6.23729 5.35281,12.32557 6.83634,18.64294 1.14937,4.89439 1.50135,9.8418 2.06854,14.65143 0.6237,5.28893 1.51524,10.48036 2.15391,15.60834 0.23277,1.86888 0.43186,3.72832 0.60101,5.57799 m -7.26202,-19.11382 c 0.0907,3.74073 0.23543,7.47468 0.2951,11.20696 0.13897,8.69259 -0.18441,17.35925 -0.70858,25.94174 -0.48146,7.88315 -1.13276,15.70498 -2.19292,23.40304 -0.58523,4.24948 -1.29439,8.4567 -2.08698,12.62527 m 7.12709,-14.19976 c -0.19196,1.12494 -0.39745,2.25094 -0.61697,3.37772 -1.55557,7.98441 -3.81318,15.99492 -6.44593,24.0561 -1.23841,3.79184 -2.57743,7.63459 -4.70202,11.11076 -2.55037,4.17282 -6.21757,7.73302 -10.5268,10.22739 -0.28805,0.10839 -0.57624,0.21692 -0.86455,0.32559 M 410.19799,473.15553 c 3.63553,1.49332 7.1438,3.19487 10.49627,5.09279 7.63879,4.32451 14.4405,9.65128 20.54671,15.4291 4.62225,4.37367 8.87784,9.0365 12.2811,14.21381 4.47138,6.80221 7.38647,14.35154 10.33996,21.73778 1.036,2.59089 2.08397,5.18097 3.01666,7.79851 m -11.57118,-27.31353 c 2.28336,5.1443 4.26303,10.4522 6.31524,15.68999 2.56533,6.5474 5.28273,13.08957 6.66188,19.98159 1.07093,5.35177 1.31603,10.82608 1.75879,16.27301 0.48618,5.981 1.21531,11.97609 1.67237,18.02898 0.54611,7.23207 0.7032,14.53767 0.6117,21.92528 m -0.20336,-21.16889 c 0.12056,1.3506 0.22594,2.6996 0.31038,4.04737 0.55262,8.82047 0.20718,17.56872 -0.63465,26.21444 -0.77297,7.93853 -1.96554,15.80532 -3.70686,23.54408 -1.78232,7.92094 -4.13603,15.69286 -6.69233,23.37871 -0.35424,1.06509 -0.7139,2.13186 -1.09624,3.18952 m 0.78107,-24.00873 c -1.09081,5.59602 -2.48204,11.06425 -4.0558,16.42932 -1.08052,3.68355 -2.26262,7.35384 -4.23204,10.60855 -1.45873,2.41074 -3.34254,4.5581 -5.53803,6.33765"
         style="fill:none;fill-rule:evenodd;stroke:#cccccc;stroke-width:0.77240705px;stroke-linecap:butt;stroke-linejoin:miter;stroke-opacity:1" />
      <path
         inkscape:original-d="m 447.24194,595.62132 c 0,0 -1.62825,6.79203 -3.16631,9.89473 -1.43049,2.88571 -4.47736,4.87569 -5.54105,7.91579 -2.79394,7.98531 -1.31917,16.87465 -1.58316,25.33051 -0.23466,7.51634 -0.55252,15.06033 0,22.56 0.26458,3.59125 0.60191,7.2216 1.58316,10.68631 0.54758,1.93345 2.59069,3.5432 2.37473,5.54105 -14.11553,11.42899 -30.75638,17.80733 -53.75839,11.46336"
         inkscape:path-effect="#path-effect4415"
         sodipodi:nodetypes="cssssscc"
         inkscape:connector-curvature="0"
         id="path4272"
         d="m 446.99816,605.37546 c -0.37886,1.30525 -0.80621,2.56812 -1.24259,3.49645 -0.65649,1.39656 -1.72501,2.57517 -2.75326,3.77562 -1.02843,1.20068 -2.02065,2.42779 -2.5223,3.92004 -1.31864,3.92262 -1.61384,8.09347 -1.62991,12.3503 -0.0161,4.25499 0.24597,8.59118 0.0469,12.83366 -0.35403,7.5452 -0.87796,15.15554 -0.56734,22.73725 0.14879,3.63177 0.36054,7.29672 1.2154,10.80066 0.23787,0.97496 0.84904,1.87538 1.36282,2.77752 0.51371,0.90203 0.93782,1.81704 0.79436,2.82262 -0.49113,0.38564 -0.98499,0.76553 -1.48171,1.13937 M 434.52251,661.607 c 0.0102,0.21394 0.0213,0.4279 0.0332,0.64188 0.19617,3.53376 0.49115,7.12041 1.45505,10.55967 0.2689,0.95946 0.91321,1.83834 1.46434,2.72698 0.55119,0.88872 1.00863,1.78653 0.90307,2.78281 -7.04262,5.69386 -14.55627,10.1939 -23.10292,12.53978 -7.74804,2.12667 -16.31914,2.47148 -26.00554,0.33164 m 51.11261,-85.63807 c -0.15137,0.31847 -0.30206,0.61576 -0.45064,0.88459 -0.78325,1.41714 -1.95975,2.60293 -3.08843,3.81309 -1.12816,1.20961 -2.19851,2.43405 -2.77032,3.92458 -1.499,3.9075 -1.88857,8.04415 -1.92652,12.21709 -0.038,4.17622 0.27673,8.39874 0.1828,12.5017 -0.16695,7.29248 -0.33363,14.57266 0.40368,21.74144 0.35286,3.43077 0.78799,6.89247 1.86736,10.16625 0.30231,0.91693 0.97723,1.74012 1.55996,2.57802 0.35123,0.50501 0.66619,1.012 0.84327,1.54429 m -1.67601,-15.31666 c 0.033,0.30889 0.0671,0.61758 0.1024,0.92607 0.4241,3.70645 0.8951,7.442 1.9849,10.98809 0.30453,0.99091 0.98221,1.89911 1.56337,2.81619 0.58147,0.91756 1.06117,1.8363 0.9772,2.85522 -6.8387,5.88801 -14.43912,10.43544 -23.16389,12.75347 -6.56497,1.7442 -13.75921,2.2252 -21.7598,1.08731 m 49.61896,-94.99306 c -0.18219,0.60384 -0.4131,1.35434 -0.66937,2.15357 -0.64558,2.01339 -1.48883,4.45894 -2.26165,5.95293 -0.72949,1.41021 -1.85265,2.59535 -2.92202,3.80268 -1.06858,1.20643 -2.08323,2.43509 -2.59314,3.92635 -1.33941,3.91719 -1.55491,8.0672 -1.39698,12.27472 0.15794,4.20782 0.69006,8.47435 0.82883,12.62992 0.24648,7.38116 0.56063,14.7955 1.8562,22.10416 0.61967,3.49575 1.34567,7.04113 2.72931,10.38805 0.3894,0.94193 1.15261,1.7817 1.8312,2.64654 0.67918,0.86559 1.24133,1.7212 1.25327,2.69264 -0.27715,0.25026 -0.55546,0.49761 -0.83498,0.74198 m -7.00092,-14.21058 c 0.0119,1.14697 0.0443,2.28824 0.10021,3.42362 0.18026,3.66225 0.47717,7.30804 1.45987,10.74529 0.27436,0.95964 0.92499,1.83128 1.48474,2.70949 0.55974,0.87819 1.02558,1.7597 0.93025,2.73762 -6.92687,5.49756 -14.29644,9.49616 -22.5535,11.01017 -7.97635,1.46254 -16.87687,0.61381 -26.82002,-3.69625"
         style="fill:none;fill-rule:evenodd;stroke:#cccccc;stroke-width:0.77240705px;stroke-linecap:butt;stroke-linejoin:miter;stroke-opacity:1" />
      <path
         inkscape:original-d="m 446.05458,457.88663 c 0,0 2.52436,3.25066 4.35368,3.95789 2.70718,1.04661 5.84036,-0.45224 8.70736,0 4.65695,0.73459 9.85164,1.3157 13.45684,4.35369 11.50726,9.69681 15.50386,25.95717 20.97684,39.97472 5.01643,12.84823 10.10978,26.19396 10.68631,39.97472 0.43701,10.44583 0,22.55999 -5.54105,30.87157 -1.84702,2.77052 -2.59087,6.76765 -5.54105,8.31157 -6.31317,3.30389 -21.37263,-0.39578 -21.37263,-0.39578"
         inkscape:path-effect="#path-effect4331"
         sodipodi:nodetypes="csssssssc"
         inkscape:connector-curvature="0"
         id="path4274"
         d="m 452.4926,465.50101 c 1.24808,0.26967 2.55771,0.12479 3.88483,-0.0742 1.53697,-0.23046 3.08117,-0.53043 4.55722,-0.33781 4.80189,0.62663 10.05194,1.12788 13.68613,4.13192 5.78631,4.78299 9.58137,11.28813 12.53654,18.36311 2.95647,7.07809 5.07468,14.73612 7.55226,21.82481 1.33271,3.81307 2.66387,7.66699 3.88757,11.55572 m -9.93331,-20.58576 c 0.77295,2.23628 1.55949,4.45779 2.39425,6.63289 4.87366,12.69922 10.19714,26.12885 11.22442,40.10553 0.38902,5.29286 0.60678,11.03801 0.0971,16.51201 -0.21442,2.30303 -0.55755,4.55922 -1.07083,6.71859 m -1.06641,-15.71325 c -0.18015,2.85033 -0.4693,5.7319 -0.94578,8.52924 -0.89741,5.26857 -2.46317,10.26695 -5.2563,14.30156 -0.93137,1.34534 -1.58133,2.99172 -2.36398,4.48473 -0.78175,1.49132 -1.69918,2.83523 -3.162,3.55908 -1.56517,0.77451 -3.66489,1.09911 -5.93271,1.14358 -1.95706,0.0384 -4.03292,-0.13168 -6.00169,-0.39667 m -25.23641,-124.8546 c 0.61844,0.006 1.2463,-0.038 1.87651,-0.0951 1.54262,-0.13969 3.10649,-0.35673 4.59126,-0.0907 4.83274,0.86602 10.16958,1.55877 13.8697,4.67457 5.91295,4.97919 9.8753,11.55298 13.06135,18.65835 3.18615,7.10558 5.59624,14.74363 8.40505,21.84734 3.55958,9.00246 7.2149,18.30686 9.54221,27.94161 m -10.70805,-27.74638 c 4.40857,12.02834 9.38825,24.64938 10.69028,37.64285 0.51349,5.12426 0.91237,10.69094 0.62115,15.94271 -0.29236,5.27253 -1.27944,10.24069 -3.52743,14.26955 -0.75097,1.34588 -1.1976,2.97415 -1.79208,4.46577 -0.59297,1.48783 -1.32868,2.81676 -2.61482,3.53589 -0.68169,0.38117 -1.48906,0.65042 -2.37532,0.82788 m 7.95927,-10.81701 c -0.93423,2.87354 -2.14128,5.53362 -3.72006,7.8688 -0.94362,1.3957 -1.60224,3.08613 -2.38915,4.61285 -0.78626,1.52544 -1.70286,2.89099 -3.16227,3.63162 -1.56122,0.79229 -3.65091,1.12847 -5.89913,1.17063 -2.25346,0.0423 -4.64368,-0.21007 -6.84566,-0.57728 -2.20321,-0.36742 -4.18241,-0.84345 -5.63244,-1.23417 -0.29944,-0.0807 -0.57535,-0.15747 -0.82466,-0.22851 m -27.7381,-129.0325 c 0.24981,0.16927 0.4958,0.30737 0.7307,0.40097 1.31405,0.52358 2.74272,0.40962 4.19497,0.22061 1.45298,-0.1891 2.93298,-0.45358 4.35372,-0.23106 4.61509,0.72282 9.83539,1.28023 13.52735,4.287 5.8896,4.79654 10.04437,11.21366 13.57736,18.13826 3.53354,6.92567 6.45126,14.36094 9.79281,21.21716 2.46623,5.06022 -0.2288,-0.46904 2.23743,4.59118 m -2.53696,-13.58489 c 1.40005,3.59784 2.75934,7.36606 4.15939,10.9639 5.03264,12.94158 9.69387,26.80502 9.53879,41.41371 -0.0588,5.54291 -0.40238,11.56606 -1.52315,17.37117 -0.0478,0.24756 -0.097,0.4947 -0.14765,0.74137 m 5.77747,-11.47749 c 0.25297,4.69109 0.24904,9.55479 -0.35444,14.19192 -0.69769,5.36098 -2.19579,10.39984 -4.99959,14.44365 -0.93482,1.34823 -1.59871,2.99476 -2.40362,4.48426 -0.80333,1.48656 -1.75159,2.82666 -3.24916,3.54078 -1.60499,0.76535 -3.75814,1.07552 -6.10101,1.10015 -2.34362,0.0246 -4.86128,-0.23628 -7.19266,-0.60147 -0.22174,-0.0347 -0.4417,-0.0704 -0.65956,-0.10682"
         style="fill:none;fill-rule:evenodd;stroke:#cccccc;stroke-width:0.77240705px;stroke-linecap:butt;stroke-linejoin:miter;stroke-opacity:1" />
      <path
         sodipodi:nodetypes="cc"
         inkscape:connector-curvature="0"
         id="path4276"
         d="m 299.61252,460.26137 c 2.47053,-0.67772 3.99353,-1.8292 4.35369,-3.56211"
         style="fill:none;fill-rule:evenodd;stroke:#cccccc;stroke-width:0.77240705px;stroke-linecap:butt;stroke-linejoin:miter;stroke-opacity:1" />
      <path
         inkscape:original-d="m 317.81883,666.46761 c 0,0 -9.33122,0.69342 -13.85262,1.58316 -5.43832,1.07018 -9.1421,1.89587 -13.45684,-1.58316 -14.53457,-11.71942 -15.6709,-7.97084 -11.47789,-6.33263 3.7313,1.45781 -0.23952,-13.68334 1.97894,-17.01894 2.95604,-4.44461 7.04297,-7.41727 12.26947,-6.33263 3.75504,0.77927 5.35735,6.46134 5.14527,10.29052 -0.29545,5.33457 -8.70737,13.45684 -8.70737,13.45684 0,0 7.91579,4.35368 13.45684,0.79158 1.84702,-1.18737 4.18743,-1.83323 5.54105,-3.56211 3.52361,-4.50047 5.93351,-9.05383 7.12421,-14.6442 1.21425,-5.70097 1.98429,-13.51719 0,-18.99789 -0.8257,-2.28063 -5.14527,-5.14526 -5.14527,-5.14526"
         inkscape:path-effect="#path-effect4280;#path-effect4345"
         sodipodi:nodetypes="csssssscssssc"
         inkscape:connector-curvature="0"
         id="path4278"
         d="m 312.92631,671.10175 c -2.35649,0.21859 -4.75148,0.29018 -7.16243,0.21098 -4.39116,-0.14425 -8.82761,-0.78721 -13.21482,-1.80881 -2.17344,-0.5061 -4.35311,-1.11124 -6.37156,-2.10767 -2.0189,-0.99667 -3.88205,-2.41008 -5.13843,-4.28183 -1.69598,-2.52666 -2.16217,-5.73362 -1.71383,-8.69997 0.44833,-2.9663 1.74698,-5.72397 3.33357,-8.22118 1.3053,-2.05448 2.85673,-4.00235 4.90229,-5.27721 1.02214,-0.63702 2.15971,-1.0958 3.34818,-1.27539 1.1882,-0.17955 2.42831,-0.0741 3.5525,0.37196 1.86422,0.73976 3.30814,2.38831 4.07251,4.29453 0.76452,1.90662 0.89208,4.04491 0.63665,6.11827 -0.02,0.1625 -0.0425,0.3247 -0.0673,0.48656 m -14.5543,-12.65245 c 0.82303,-0.43629 1.70512,-0.75564 2.61865,-0.91478 1.20959,-0.21072 2.47435,-0.13457 3.62746,0.28433 1.91065,0.6941 3.41377,2.3045 4.24383,4.17576 0.83016,1.87147 1.03264,3.98441 0.85897,6.03449 -0.46816,5.52654 -3.76008,10.75056 -8.49188,13.51198 4.19593,2.20053 9.36227,2.55129 13.83854,0.95075 2.13614,-0.76379 4.11235,-1.95015 5.77779,-3.45812 2.06857,-1.87298 3.64079,-4.21766 4.86361,-6.67966 1.09987,-2.21447 1.93311,-4.5388 2.71275,-6.86871 m -9.83599,13.25415 c 1.77516,-1.94183 3.08954,-4.32108 4.08898,-6.82508 1.02546,-2.5692 1.73055,-5.27128 2.41343,-7.98131 0.80735,-3.20402 1.59128,-6.45472 1.77058,-9.78046 0.14168,-2.62777 -0.11534,-5.32691 -0.99211,-7.79344 m -4.14583,40.84064 c -1.74264,0.22265 -3.50033,0.35316 -5.26398,0.39113 -4.35228,0.0937 -8.7349,-0.37493 -13.04934,-1.26848 -2.13821,-0.44284 -4.27663,-0.99555 -6.25149,-1.94974 -1.97423,-0.95389 -3.78909,-2.33414 -4.99258,-4.1801 -1.62545,-2.49319 -2.01139,-5.67578 -1.4752,-8.62987 0.5363,-2.95464 1.92937,-5.70361 3.62125,-8.20053 1.39015,-2.05162 3.03557,-4.00235 5.17622,-5.27584 1.07059,-0.6369 2.25835,-1.09547 3.49801,-1.27425 1.23972,-0.17878 2.53259,-0.072 3.71101,0.37623 1.9527,0.74278 3.49212,2.39843 4.35433,4.31415 0.86183,1.91486 1.09201,4.07056 0.94299,6.1619 -0.40175,5.63819 -3.64815,10.96864 -8.32401,13.85526 0.13106,0.0712 0.26306,0.14065 0.39594,0.20835 m 2.85794,-24.75266 c 0.94201,0.78424 1.69103,1.82451 2.18425,2.96481 0.79513,1.83827 0.97003,3.91478 0.77667,5.92721 -0.52122,5.42452 -3.81027,10.53112 -8.48788,13.1552 4.24119,2.08601 9.48852,2.30885 14.07925,0.56418 2.19079,-0.83259 4.22924,-2.09136 5.96429,-3.67565 2.15453,-1.96732 3.82516,-4.41333 5.15667,-6.98274 1.33066,-2.56777 2.34479,-5.282 3.33088,-7.99295 1.17055,-3.21809 2.30951,-6.4609 2.84879,-9.80554 0.53961,-3.34669 0.43989,-6.78469 -0.75115,-9.75022 -0.19038,-0.47404 -0.40801,-0.9329 -0.65026,-1.37397 m -2.622,50.17569 c -4.15298,0.95958 -8.33689,1.41881 -12.46365,1.37231 -4.5412,-0.0512 -9.00566,-0.71329 -13.31736,-1.85061 -2.13441,-0.563 -4.25427,-1.25042 -6.18545,-2.34891 -1.93047,-1.0981 -3.68863,-2.64016 -4.81369,-4.65384 -1.52246,-2.72497 -1.77511,-6.1534 -1.07972,-9.38938 0.69428,-3.23081 2.26811,-6.27765 4.16219,-9.10039 1.5576,-2.3213 3.37774,-4.55029 5.70531,-6.12218 1.16479,-0.78662 2.44675,-1.39769 3.78456,-1.73391 1.33869,-0.33644 2.72855,-0.39094 4.00899,-0.10795 1.40805,0.31119 2.63935,1.02563 3.60821,1.94085 m -21.42036,1.15227 c 1.13453,-1.62363 2.47751,-3.10955 4.15597,-4.16043 1.04098,-0.65174 2.20317,-1.12611 3.42189,-1.32212 1.21867,-0.196 2.49427,-0.10779 3.65952,0.32053 1.93056,0.70964 3.45842,2.32872 4.3169,4.20188 0.85831,1.87282 1.09338,3.98211 0.95589,6.0205 -0.37074,5.49656 -3.53838,10.64526 -8.12252,13.29312 4.31899,2.10585 9.62421,2.33581 14.25308,0.59232 2.20899,-0.83202 4.26112,-2.09158 6.00533,-3.67728 2.16589,-1.96906 3.84093,-4.41778 5.16984,-6.98943 0.55115,-1.06656 1.04606,-2.15712 1.50564,-3.26122 m -6.54774,15.04084 c 1.54712,-0.77405 2.96935,-1.77702 4.19961,-2.96358 1.9978,-1.92682 3.46989,-4.3092 4.57109,-6.79957 1.10136,-2.49072 1.84688,-5.09883 2.53613,-7.69253 0.8151,-3.06732 1.56072,-6.15542 1.66107,-9.29142 0.10027,-3.13335 -0.48015,-6.36241 -2.18088,-9.05585 -0.40023,-0.63384 -0.86097,-1.23319 -1.37415,-1.79"
         style="fill:none;fill-rule:evenodd;stroke:#cccccc;stroke-width:0.77240705px;stroke-linecap:butt;stroke-linejoin:miter;stroke-opacity:1" />
      <path
         sodipodi:nodetypes="csssssc"
         inkscape:connector-curvature="0"
         inkscape:original-d="m 282.59358,605.51605 c 0,0 -13.06278,8.29129 -17.01894,14.64421 -3.89046,6.24741 -5.35641,14.0152 -5.54105,21.37262 -0.21291,8.48401 0.83952,17.62143 5.14526,24.93473 5.03126,8.5456 13.61766,15.107 22.55999,19.39367 5.20336,2.49433 11.25504,3.43845 17.01894,3.16632 2.87819,-0.13589 8.31158,-2.37474 8.31158,-2.37474"
         inkscape:path-effect="#path-effect4290;#path-effect4347"
         id="path4288"
         d="m 278.31876,611.95866 c -4.35049,2.75188 -8.09757,6.65595 -10.75343,11.29404 -3.62195,6.32524 -5.18614,13.81624 -5.57899,21.26784 -0.45429,8.61676 0.64935,17.50617 4.48113,25.14254 2.38705,4.75716 5.76664,8.87382 9.74866,12.28102 m -14.9073,-17.58649 c 0.42676,1.01663 0.90175,2.01627 1.42735,2.99535 4.68694,8.7307 13.152,15.29638 22.65448,19.31353 5.25796,2.22278 10.99754,3.74152 16.75138,3.41728 m -31.0641,-79.566 c -4.09855,2.72659 -7.54863,6.25665 -10.04404,10.31073 -3.86466,6.27857 -5.41004,13.61579 -5.61813,20.82056 -0.24035,8.32194 1.30142,16.82725 5.63739,23.96418 2.04653,3.36855 4.6734,6.35005 7.70352,8.91856 m -7.0807,-13.02248 c 0.63305,1.46517 1.34241,2.89514 2.13487,4.28196 5.23703,9.16497 13.84244,15.90338 23.26344,19.96626 5.43768,2.34504 11.32412,3.88171 17.16795,3.34339 2.35367,-0.21682 4.67223,-0.77033 6.86534,-1.63308 M 275.84085,606.5577 c -5.30494,2.83491 -9.70236,7.03202 -12.60517,12.05789 -3.63978,6.30186 -4.89895,13.69169 -4.7532,21.00005 0.16808,8.42847 2.21897,17.10943 7.16847,24.43039 3.64742,5.39501 8.75781,9.85908 14.6895,13.30276 m -17.63626,-10.08653 c 0.339,0.82706 0.70889,1.63923 1.11074,2.43483 4.58931,9.086 13.101,15.47159 22.77308,18.90556 5.57267,1.97852 11.74092,3.06061 17.90329,1.97257 0.30922,-0.0546 0.61808,-0.11464 0.9264,-0.18007"
         style="fill:none;fill-rule:evenodd;stroke:#cccccc;stroke-width:0.77240705px;stroke-linecap:butt;stroke-linejoin:miter;stroke-opacity:1" />
      <path
         sodipodi:nodetypes="cc"
         inkscape:connector-curvature="0"
         id="path4300"
         d="m 369.76081,691.21461 c 4.3444,0.52004 8.075,1.32779 16.95036,-0.27606"
         style="fill:none;fill-rule:evenodd;stroke:#cccccc;stroke-width:0.77240705px;stroke-linecap:butt;stroke-linejoin:miter;stroke-opacity:1" />
      <path
         inkscape:original-d="m 356.37006,664.44668 c -23.42485,2.18632 -35.9181,-6.55896 -35.9181,-6.55896 0,0 -9.40179,22.58797 -6.87129,29.67148 1.30158,3.64345 8.65817,2.55192 9.68227,0.31233 1.36451,-2.98402 1.43835,-10.68091 1.56165,-10.61926"
         inkscape:path-effect="#path-effect4380"
         sodipodi:nodetypes="ccssc"
         inkscape:connector-curvature="0"
         id="path4302"
         d="m 351.38137,668.26859 c -8.22054,-0.1882 -14.83989,-1.63429 -19.69905,-3.23353 -3.00539,-0.98912 -5.29518,-2.02252 -6.84405,-2.81761 -0.77316,-0.39689 -1.35705,-0.73199 -1.74982,-0.96949 -0.19623,-0.11866 -0.34412,-0.21257 -0.4436,-0.27727 -0.0497,-0.0323 -0.0872,-0.0573 -0.11258,-0.0744 -0.0254,-0.0171 -0.0384,-0.0262 -0.0393,-0.0268 -3e-5,-2e-5 -5e-5,-3e-5 -5e-5,-3e-5 0,0 0,10e-6 -1e-5,3e-5 0.002,-0.005 -0.01,0.0226 -0.008,0.0178 0.002,-0.005 -0.0232,0.0552 -0.021,0.0498 -0.0184,0.0438 -0.0453,0.10817 -0.0804,0.19241 -0.0702,0.16871 -0.17196,0.41496 -0.30116,0.73176 -0.25808,0.63282 -0.62421,1.54377 -1.05834,2.65963 -0.86254,2.21701 -2.01557,5.29936 -3.09587,8.56914 -1.08355,3.27963 -2.1124,6.80189 -2.72447,9.93804 -0.30647,1.57031 -0.50909,3.04645 -0.56324,4.35415 -0.0542,1.30806 0.0403,2.44541 0.32645,3.3406 0.29421,0.9205 0.97113,1.54532 1.82711,1.93031 0.8566,0.38527 1.89508,0.53177 2.92325,0.49444 1.02853,-0.0373 2.04782,-0.25857 2.86953,-0.60923 0.82099,-0.35035 1.44673,-0.83105 1.68099,-1.38457 0.31239,-0.73814 0.53485,-1.76705 0.69445,-2.89657 0.15956,-1.12929 0.25603,-2.35718 0.31731,-3.49207 0.022,-0.40639 0.0394,-0.80078 0.0536,-1.17423 m 19.2505,-17.88284 c -7.35882,-0.31546 -13.15912,-1.56899 -17.46873,-2.94611 -3.01823,-0.96447 -5.2895,-1.98517 -6.81227,-2.76844 -0.76102,-0.39145 -1.33425,-0.7232 -1.71832,-0.95783 -0.19202,-0.11731 -0.33672,-0.21032 -0.43385,-0.2743 -0.0486,-0.032 -0.0852,-0.0567 -0.10998,-0.0736 -0.0247,-0.0169 -0.0376,-0.0259 -0.0384,-0.0265 -3e-5,-2e-5 -4e-5,-3e-5 -4e-5,-3e-5 0,0 0,10e-6 -10e-6,3e-5 0.003,-0.007 -0.01,0.0249 -0.007,0.0179 0.002,-0.006 -0.0221,0.0557 -0.0199,0.0501 -0.0174,0.0439 -0.0431,0.10899 -0.0762,0.19359 -0.0662,0.16896 -0.16299,0.41823 -0.28433,0.73615 -0.24293,0.63655 -0.58583,1.55292 -0.98608,2.675 -0.80531,2.25768 -1.82557,5.30003 -2.75683,8.61492 -0.92883,3.3062 -1.7528,6.82807 -2.17005,9.99195 -0.20824,1.57903 -0.31446,3.06487 -0.28071,4.38052 0.0337,1.31533 0.20739,2.46241 0.56056,3.36317 0.36379,0.92784 1.10152,1.5578 2.03094,1.95083 0.92845,0.39262 2.0471,0.54768 3.15824,0.51938 1.11113,-0.0283 2.21472,-0.24 3.11054,-0.58195 0.89714,-0.34246 1.58221,-0.81389 1.86721,-1.36216 0.26229,-0.50458 0.4919,-1.14872 0.69322,-1.86689"
         style="fill:none;fill-rule:evenodd;stroke:#cccccc;stroke-width:0.77240705px;stroke-linecap:butt;stroke-linejoin:miter;stroke-opacity:1" />
      <path
         inkscape:original-d="m 395.76608,664.54678 c 0,0 15.90132,3.53363 32.68604,-3.53362"
         inkscape:path-effect="#path-effect4417"
         sodipodi:nodetypes="cc"
         inkscape:connector-curvature="0"
         id="path4323"
         d="m 403.76138,668.80324 c 1.13833,0.0267 2.39313,0.0289 3.74184,-0.009 4.00718,-0.1121 8.86303,-0.57675 14.00655,-1.81537 m -19.70396,-0.63272 c 0.51842,0.005 1.05684,0.004 1.61381,-0.005 5.59044,-0.0892 13.10369,-0.94236 21.01572,-3.95426"
         style="fill:none;fill-rule:evenodd;stroke:#cccccc;stroke-width:0.77240705px;stroke-linecap:butt;stroke-linejoin:miter;stroke-opacity:1" />
      <path
         inkscape:connector-curvature="0"
         id="path4357"
         d="m 343.37154,488.43665 0.9867,4.9335"
         style="fill:none;fill-rule:evenodd;stroke:#cccccc;stroke-width:0.77240705px;stroke-linecap:butt;stroke-linejoin:miter;stroke-opacity:1" />
      <path
         inkscape:connector-curvature="0"
         id="path4374"
         d="m 346.82499,499.31695 c 5.42685,2.9601 3.9468,2.9601 3.9468,2.9601"
         style="fill:none;fill-rule:evenodd;stroke:#cccccc;stroke-width:0.77240705px;stroke-linecap:butt;stroke-linejoin:miter;stroke-opacity:1" />
      <path
         inkscape:original-d="m 326.08908,688.14174 c 0,0 3.97264,2.91393 6.3114,3.41868 2.40531,0.51911 4.91512,-0.77369 7.3633,-0.52595 2.26418,0.22912 4.31981,1.53114 6.57438,1.84082 2.34476,0.32207 4.78511,0.49132 7.10033,0 1.68905,-0.35844 3.00719,-2.07124 4.73355,-2.1038 2.83182,-0.0534 5.17845,3.97646 7.88925,3.1557 1.62899,-0.49322 2.36857,-2.5883 2.89272,-4.2076 1.13412,-3.50371 0.79189,-7.40044 0.26298,-11.04495 -0.41008,-2.82569 -3.04727,-5.32762 -2.62975,-8.15223 0.40534,-2.7422 4.26953,-4.10446 4.73355,-6.83735 0.44143,-2.59984 -1.73636,-5.01496 -2.1038,-7.62628 -1.17261,-8.33356 -0.26298,-25.2456 -0.26298,-25.2456"
         inkscape:path-effect="#path-effect4378"
         sodipodi:nodetypes="csssssssssssc"
         inkscape:connector-curvature="0"
         id="path4376"
         d="m 333.26008,694.84667 c 0.24266,0.0719 0.47552,0.12885 0.69429,0.16708 1.25653,0.21961 2.52896,-0.0101 3.80974,-0.27291 1.28003,-0.26262 2.5565,-0.55534 3.8165,-0.46009 2.32875,0.17606 4.43505,1.43388 6.72701,1.7078 2.38286,0.28479 4.85047,0.42505 7.17706,-0.0869 0.84932,-0.18687 1.60365,-0.71125 2.36173,-1.19433 0.758,-0.48302 1.51838,-0.92371 2.38006,-0.9438 1.41318,-0.0329 2.70088,0.95719 3.96799,1.85347 0.63371,0.44824 1.26266,0.87319 1.90091,1.13503 0.63822,0.26183 1.28585,0.36053 1.95478,0.15648 0.80408,-0.24527 1.38454,-0.89021 1.82463,-1.67522 0.44036,-0.78549 0.73941,-1.70917 0.98623,-2.51537 1.06882,-3.49115 0.63724,-7.35164 0.008,-10.96714 -0.24428,-1.40265 -1.0472,-2.71557 -1.75115,-4.0349 -0.70406,-1.31956 -1.30007,-2.63171 -1.1366,-4.0321 0.15813,-1.35469 1.18386,-2.37091 2.20592,-3.37727 1.02192,-1.00623 2.05999,-2.02024 2.24355,-3.37005 0.17525,-1.28873 -0.30229,-2.52452 -0.88685,-3.76824 -0.58459,-1.24376 -1.2686,-2.48222 -1.49977,-3.77821 -0.14766,-0.82779 -0.27738,-1.74164 -0.39115,-2.71568 m -5.47025,14.9592 c 0.005,-0.0588 0.011,-0.1177 0.0185,-0.17675 0.17503,-1.39106 1.22165,-2.44239 2.27386,-3.48489 1.05307,-1.04335 2.12147,-2.08523 2.34162,-3.46327 0.20976,-1.31297 -0.23149,-2.57581 -0.77167,-3.84078 -0.53993,-1.26441 -1.17728,-2.5277 -1.35904,-3.83826 -0.29032,-2.09323 -0.43998,-4.70588 -0.49233,-7.46044 -0.0525,-2.76123 -0.007,-5.62099 0.0826,-8.24793 0,-1.1e-4 0.004,-0.10381 0.004,-0.10392 m -36.72761,51.60453 c 0.76371,-0.0158 1.53576,-0.16419 2.31251,-0.32763 1.18623,-0.2496 2.37985,-0.53316 3.56577,-0.43179 2.19122,0.18731 4.18708,1.44545 6.39461,1.70933 2.2943,0.27424 4.70112,0.39257 6.99141,-0.15164 0.83697,-0.19888 1.57927,-0.73607 2.33094,-1.23478 0.75175,-0.49876 1.50671,-0.95426 2.36835,-0.99173 1.40835,-0.0612 2.70835,0.89681 3.98821,1.75159 0.64117,0.42822 1.28057,0.8332 1.92899,1.07548 0.64831,0.24224 1.30788,0.32284 1.98988,0.0977 0.82068,-0.27095 1.41861,-0.94061 1.88172,-1.75638 0.46249,-0.81465 0.78917,-1.77335 1.06144,-2.60952 1.177,-3.61467 0.90026,-7.64685 0.44675,-11.4301 -0.17549,-1.46392 -0.90618,-2.86024 -1.52958,-4.25083 -0.6237,-1.39126 -1.14621,-2.78593 -0.90272,-4.25746 0.2367,-1.43046 1.33744,-2.51881 2.45271,-3.61583 1.11525,-1.09701 2.2329,-2.18895 2.50213,-3.62374 0.25589,-1.36367 -0.14357,-2.68786 -0.64059,-4.01575 -0.35358,-0.94468 -0.75867,-1.89511 -1.01567,-2.85987 m -0.63802,15.35504 c -0.0499,-0.42865 -0.0426,-0.86377 0.0453,-1.30681 0.26455,-1.33288 1.38154,-2.30717 2.51715,-3.29395 1.13456,-0.98586 2.25989,-1.96519 2.53805,-3.30215 0.2633,-1.26553 -0.13356,-2.494 -0.62945,-3.71661 -0.49629,-1.22355 -1.09783,-2.45469 -1.24997,-3.7337 -0.24227,-2.03678 -0.35072,-4.61526 -0.38259,-7.32408 -0.0318,-2.70437 0.0126,-5.57491 0.0842,-8.1687 0.0718,-2.6028 0.17153,-4.94975 0.25406,-6.65085 0.0204,-0.42096 0.0398,-0.80178 0.0574,-1.13726"
         style="fill:none;fill-rule:evenodd;stroke:#cccccc;stroke-width:0.77240705px;stroke-linecap:butt;stroke-linejoin:miter;stroke-opacity:1" />
      <path
         inkscape:connector-curvature="0"
         id="path4388"
         d="m 341.03496,675.99647 c 0,0 -8.92567,6.69425 -3.71903,14.87611"
         style="fill:none;fill-rule:evenodd;stroke:#cccccc;stroke-width:0.77240705px;stroke-linecap:butt;stroke-linejoin:miter;stroke-opacity:1" />
      <path
         inkscape:connector-curvature="0"
         id="path4390"
         d="m 355.16727,676.36837 c 0,0 -4.09093,10.78519 -1.85951,14.50421"
         style="fill:none;fill-rule:evenodd;stroke:#cccccc;stroke-width:0.77240705px;stroke-linecap:butt;stroke-linejoin:miter;stroke-opacity:1" />
      <path
         inkscape:connector-curvature="0"
         id="path4390-5"
         d="m 325.57884,671.67963 c 0,0 -4.09093,10.78519 -1.85951,14.50421"
         style="display:inline;fill:none;fill-rule:evenodd;stroke:#cccccc;stroke-width:0.77240705px;stroke-linecap:butt;stroke-linejoin:miter;stroke-opacity:1" />
      <path
         sodipodi:nodetypes="cc"
         inkscape:connector-curvature="0"
         id="path4407"
         d="m 397.9361,689.75688 c 4.67826,-2.68156 4.65975,-7.71151 5.57855,-12.2728"
         style="fill:none;fill-rule:evenodd;stroke:#cccccc;stroke-width:0.77240705px;stroke-linecap:butt;stroke-linejoin:miter;stroke-opacity:1" />
      <path
         sodipodi:nodetypes="cc"
         inkscape:connector-curvature="0"
         id="path4409"
         d="m 412.81222,689.01307 c 4.88767,-1.3213 5.18412,-6.31558 5.20664,-11.52899"
         style="fill:none;fill-rule:evenodd;stroke:#cccccc;stroke-width:0.77240705px;stroke-linecap:butt;stroke-linejoin:miter;stroke-opacity:1" />
      <path
         sodipodi:nodetypes="cc"
         inkscape:connector-curvature="0"
         id="path4411"
         d="m 427.31643,683.06262 c 0.94977,-1.36561 1.87964,-2.79088 1.85952,-7.06615"
         style="fill:none;fill-rule:evenodd;stroke:#cccccc;stroke-width:0.77240705px;stroke-linecap:butt;stroke-linejoin:miter;stroke-opacity:1" />
      <path
         inkscape:original-d="m 379.71286,667.5637 c 0,0 6.33308,-5.45756 8.55377,-2.06948 2.97414,4.53759 0.7438,21.38453 0.7438,21.38453"
         inkscape:path-effect="#path-effect4421"
         sodipodi:nodetypes="csc"
         inkscape:connector-curvature="0"
         id="path4413"
         d="m 386.90368,667.93378 c 0.21919,-0.0451 0.4351,-0.076 0.64599,-0.0902 0.94378,-0.0635 1.78211,0.20783 2.37463,1.02428 0.79289,1.09256 1.27786,2.94553 1.54803,5.10905 0.25683,2.05673 0.31898,4.3837 0.27695,6.63124 m -6.83819,-15.04533 c 0.36418,0.16924 0.6866,0.44345 0.94745,0.84729 0.71862,1.11253 1.10625,2.98582 1.29186,5.17589 0.18514,2.18464 0.17005,4.70166 0.0739,7.07084 -0.096,2.36589 -0.27483,4.62296 -0.42705,6.26509 -0.037,0.39921 -0.0726,0.76381 -0.10533,1.08728"
         style="fill:none;fill-rule:evenodd;stroke:#cccccc;stroke-width:0.77240705px;stroke-linecap:butt;stroke-linejoin:miter;stroke-opacity:1" />
      <path
         inkscape:original-d="m 383.25695,630.15355 c 0,0 6.95566,20.86698 5.56453,31.30047"
         inkscape:path-effect="#path-effect4425"
         inkscape:connector-curvature="0"
         id="path4423"
         d="m 386.65876,639.87665 c 0.53315,1.58674 1.10115,3.39083 1.64865,5.33655 0.88763,3.15445 1.69848,6.60221 2.20861,9.95926 m -7.25117,-15.95016 c 0.2791,1.11821 0.56774,2.31752 0.85189,3.56432 0.72976,3.20208 1.44291,6.77311 1.89266,10.16427 0.36098,2.72188 0.55591,5.35206 0.45395,7.62941 m -5.82417,-24.6332 c 0.46504,1.88242 1.02501,4.24949 1.56034,6.76807 0.67582,3.17957 1.33912,6.72249 1.74396,10.05053 0.0596,0.48968 0.11371,0.97589 0.16163,1.45701 m -0.0293,-16.79547 c 0.36063,1.1907 0.72848,2.45892 1.08849,3.77885 0.86493,3.17111 1.67323,6.60001 2.22436,9.91675 m -5.5332,-19.64505 c 0.0797,0.28482 0.16488,0.59134 0.25477,0.91766 0.55987,2.03245 1.34028,4.96846 2.09089,8.12414 0.75354,3.16799 1.51907,6.7299 2.02911,10.06831 0.33099,2.16645 0.56006,4.27213 0.61331,6.1788"
         style="fill:none;fill-rule:evenodd;stroke:#cccccc;stroke-width:0.77240705px;stroke-linecap:butt;stroke-linejoin:miter;stroke-opacity:1" />
    </g>
  </g>
</svg>
