<?xml version="1.0" encoding="UTF-8" standalone="no"?>
<!-- Created with Inkscape (http://www.inkscape.org/) -->

<svg
   xmlns:dc="http://purl.org/dc/elements/1.1/"
   xmlns:cc="http://creativecommons.org/ns#"
   xmlns:rdf="http://www.w3.org/1999/02/22-rdf-syntax-ns#"
   xmlns:svg="http://www.w3.org/2000/svg"
   xmlns="http://www.w3.org/2000/svg"
   xmlns:sodipodi="http://sodipodi.sourceforge.net/DTD/sodipodi-0.dtd"
   xmlns:inkscape="http://www.inkscape.org/namespaces/inkscape"
   width="500"
   height="500"
   viewBox="0 0 500.00001 500.00001"
   id="svg2"
   version="1.1"
   inkscape:version="0.92.3 (2405546, 2018-03-11)"
   sodipodi:docname="suaceño-gray.svg">
  <defs
     id="defs4">
    <inkscape:path-effect
       effect="sketch"
       id="path-effect4273"
       is_visible="true"
       nbiter_approxstrokes="4"
       strokelength="100"
       strokelength_rdm="0.3;1"
       strokeoverlap="0.3"
       strokeoverlap_rdm="0.3;1"
       ends_tolerance="0.1;1"
       parallel_offset="0;1"
       tremble_size="5;1"
       tremble_frequency="1"
       nbtangents="0"
       tgt_places_rdmness="1;1"
       tgtscale="10"
       tgtlength="100"
       tgtlength_rdm="0.3;1" />
    <inkscape:path-effect
       effect="sketch"
       id="path-effect4271"
       is_visible="true"
       nbiter_approxstrokes="3"
       strokelength="100"
       strokelength_rdm="0.3;1"
       strokeoverlap="0.3"
       strokeoverlap_rdm="0.3;1"
       ends_tolerance="0.1;1"
       parallel_offset="0;1"
       tremble_size="5;1"
       tremble_frequency="1"
       nbtangents="0"
       tgt_places_rdmness="1;1"
       tgtscale="10"
       tgtlength="100"
       tgtlength_rdm="0.3;1" />
    <inkscape:path-effect
       effect="sketch"
       id="path-effect4269"
       is_visible="true"
       nbiter_approxstrokes="3"
       strokelength="100"
       strokelength_rdm="0.3;1"
       strokeoverlap="0.3"
       strokeoverlap_rdm="0.3;1"
       ends_tolerance="0.1;1"
       parallel_offset="0;1"
       tremble_size="5;1"
       tremble_frequency="1"
       nbtangents="0"
       tgt_places_rdmness="1;1"
       tgtscale="10"
       tgtlength="100"
       tgtlength_rdm="0.3;1" />
    <inkscape:path-effect
       effect="sketch"
       id="path-effect4267"
       is_visible="true"
       nbiter_approxstrokes="3"
       strokelength="100"
       strokelength_rdm="0.3;1"
       strokeoverlap="0.3"
       strokeoverlap_rdm="0.3;1"
       ends_tolerance="0.1;1"
       parallel_offset="0;1"
       tremble_size="5;1"
       tremble_frequency="1"
       nbtangents="0"
       tgt_places_rdmness="1;1"
       tgtscale="10"
       tgtlength="100"
       tgtlength_rdm="0.3;1" />
    <inkscape:path-effect
       effect="sketch"
       id="path-effect4265"
       is_visible="true"
       nbiter_approxstrokes="3"
       strokelength="100"
       strokelength_rdm="0.3;1"
       strokeoverlap="0.3"
       strokeoverlap_rdm="0.3;1"
       ends_tolerance="0.1;1"
       parallel_offset="0;1"
       tremble_size="5;1"
       tremble_frequency="1"
       nbtangents="0"
       tgt_places_rdmness="1;1"
       tgtscale="10"
       tgtlength="100"
       tgtlength_rdm="0.3;1" />
    <inkscape:path-effect
       effect="sketch"
       id="path-effect4263"
       is_visible="true"
       nbiter_approxstrokes="3"
       strokelength="100"
       strokelength_rdm="0.3;1"
       strokeoverlap="0.3"
       strokeoverlap_rdm="0.3;1"
       ends_tolerance="0.1;1"
       parallel_offset="0;1"
       tremble_size="5;1"
       tremble_frequency="1"
       nbtangents="0"
       tgt_places_rdmness="1;1"
       tgtscale="10"
       tgtlength="100"
       tgtlength_rdm="0.3;1" />
    <inkscape:path-effect
       effect="sketch"
       id="path-effect4261"
       is_visible="true"
       nbiter_approxstrokes="3"
       strokelength="100"
       strokelength_rdm="0.3;1"
       strokeoverlap="0.3"
       strokeoverlap_rdm="0.3;1"
       ends_tolerance="0.1;1"
       parallel_offset="0;1"
       tremble_size="5;1"
       tremble_frequency="1"
       nbtangents="0"
       tgt_places_rdmness="1;1"
       tgtscale="10"
       tgtlength="100"
       tgtlength_rdm="0.3;1" />
    <inkscape:path-effect
       effect="sketch"
       id="path-effect4259"
       is_visible="true"
       nbiter_approxstrokes="2"
       strokelength="100"
       strokelength_rdm="0.3;1"
       strokeoverlap="0.3"
       strokeoverlap_rdm="0.3;1"
       ends_tolerance="0.1;1"
       parallel_offset="0;1"
       tremble_size="5;1"
       tremble_frequency="1"
       nbtangents="0"
       tgt_places_rdmness="1;1"
       tgtscale="10"
       tgtlength="100"
       tgtlength_rdm="0.3;1" />
    <inkscape:path-effect
       effect="sketch"
       id="path-effect4257"
       is_visible="true"
       nbiter_approxstrokes="3"
       strokelength="100"
       strokelength_rdm="0.3;1"
       strokeoverlap="0.3"
       strokeoverlap_rdm="0.3;1"
       ends_tolerance="0.1;1"
       parallel_offset="0;1"
       tremble_size="5;1"
       tremble_frequency="1"
       nbtangents="0"
       tgt_places_rdmness="1;1"
       tgtscale="10"
       tgtlength="100"
       tgtlength_rdm="0.3;1" />
    <inkscape:path-effect
       effect="spiro"
       id="path-effect4243"
       is_visible="true" />
    <inkscape:path-effect
       effect="spiro"
       id="path-effect4239"
       is_visible="true" />
    <inkscape:path-effect
       effect="spiro"
       id="path-effect4235"
       is_visible="true" />
    <inkscape:path-effect
       effect="spiro"
       id="path-effect4212"
       is_visible="true" />
    <inkscape:path-effect
       effect="spiro"
       id="path-effect4208"
       is_visible="true" />
    <inkscape:path-effect
       effect="spiro"
       id="path-effect4204"
       is_visible="true" />
  </defs>
  <sodipodi:namedview
     id="base"
     pagecolor="#ffffff"
     bordercolor="#666666"
     borderopacity="1.0"
     inkscape:pageopacity="0.0"
     inkscape:pageshadow="2"
     inkscape:zoom="0.91477273"
     inkscape:cx="175.94376"
     inkscape:cy="224.12351"
     inkscape:document-units="px"
     inkscape:current-layer="g4275"
     showgrid="false"
     inkscape:window-width="1301"
     inkscape:window-height="744"
     inkscape:window-x="65"
     inkscape:window-y="24"
     inkscape:window-maximized="1"
     showguides="false"
     units="px" />
  <metadata
     id="metadata7">
    <rdf:RDF>
      <cc:Work
         rdf:about="">
        <dc:format>image/svg+xml</dc:format>
        <dc:type
           rdf:resource="http://purl.org/dc/dcmitype/StillImage" />
        <dc:title></dc:title>
      </cc:Work>
    </rdf:RDF>
  </metadata>
  <g
     inkscape:groupmode="layer"
     id="layer2"
     inkscape:label="boceto"
     style="opacity:1"
     transform="translate(0,-552.36216)">
    <g
       id="g4275"
       transform="matrix(0.76298969,0,0,0.76295167,-45.401802,377.92496)">
      <path
         sodipodi:nodetypes="csssssssc"
         inkscape:connector-curvature="0"
         inkscape:original-d="m 268.91925,523.26904 c 0,0 134.73713,-156.06057 162.88199,-169.441 34.29669,-16.30507 26.39235,-22.35825 13.11801,-57.93788 -6.38901,-17.12466 -30.98478,-20.26632 -49.19254,-21.86336 -35.83375,-3.14305 -72.72418,9.1487 -104.9441,25.14286 -35.02094,17.3846 -74.44428,38.79147 -90.73292,74.3354 -12.14832,26.50921 -25.14286,45.91305 2.18633,87.45342 9.10973,13.84679 15.05869,30.39787 27.3292,41.54037 10.98104,9.97157 39.35403,20.77019 39.35403,20.77019 z"
         inkscape:path-effect="#path-effect4204;#path-effect4261"
         id="path4202"
         d="m 275.69385,522.87407 c 22.6845,-16.91491 42.19964,-33.66528 60.69263,-51.89435 m -17.37729,10.73792 c 17.33699,-16.36368 35.01237,-32.91945 52.1755,-50.17792 m -13.56409,10.90339 c 15.99707,-18.49232 32.77283,-38.07076 48.44934,-59.31319 m -7.98669,13.84238 c 12.13445,-13.60388 22.97274,-28.14902 33.22131,-43.05088 5.87978,-8.54945 11.6253,-17.33877 14.94316,-27.04924 0.99206,-2.90349 1.75884,-5.87866 2.22859,-8.8742 m -11.64266,23.2837 c 2.80449,-5.28881 5.35441,-10.73708 7.18453,-16.51363 1.60591,-5.06882 2.63439,-10.35643 2.72377,-15.64737 0.0894,-5.29257 -0.779,-10.57996 -2.79475,-15.30158 -3.64967,-8.54888 -10.88778,-14.78125 -18.65583,-18.366 -2.04554,-0.94396 -4.13265,-1.72328 -6.24433,-2.36935 m 15.54531,15.15285 c -3.80594,-2.80199 -8.0952,-5.06831 -12.48766,-6.74496 -8.83808,-3.3736 -18.16424,-4.60948 -27.10684,-5.29708 -10.81486,-0.83155 -21.22903,-0.91291 -31.35636,-0.40415 m 10.67857,-3.82923 c -25.42571,2.16894 -48.3263,8.79467 -69.5594,17.13042 m 19.0804,-3.52704 c -10.59713,3.47564 -21.35611,7.7769 -32.18174,12.60896 -11.43197,5.1027 -23.05355,10.83633 -34.36314,17.62822 m 18.21013,-3.52361 c -11.36064,5.9138 -22.65882,12.16256 -33.2697,19.48904 -14.49283,10.00684 -27.63083,22.13542 -36.33024,36.4704 m 12.65058,-24.66339 c -7.38945,8.62089 -13.36491,18.01268 -17.3664,28.26346 -5.53085,14.16859 -7.15911,29.67246 -5.60091,45.36161 0.47479,4.78052 1.24062,9.57681 2.26549,14.38327 m -2.06642,-21.10996 c -0.0357,3.76776 0.0811,7.53272 0.3488,11.27147 1.07781,15.0518 4.55586,29.69175 9.9056,43.38981 3.11081,7.96525 6.89554,15.67811 11.56367,22.80586 m -14.52615,-22.34797 c 6.73484,13.88615 14.94408,26.36987 25.62262,35.90608 10.85468,9.69351 24.13549,16.1422 38.51211,18.65313 9.3e-4,-7.6e-4 0.62111,-0.50821 0.62204,-0.50897 m -25.38373,-9.4712 c 7.19226,3.81741 14.81441,6.85712 22.66527,8.9994 16.69773,-10.8444 32.73201,-21.39205 48.86964,-31.37366 m -36.2154,25.84673 c 18.65207,-13.52603 37.11793,-28.41466 53.7868,-42.63339 m -10.74733,12.94108 c 19.79273,-18.27458 37.50162,-36.58949 53.31915,-56.14435 m -12.59553,11.17172 c 20.37629,-21.44796 41.30892,-45.0088 61.32764,-68.33246 m -12.32816,22.51676 c 8.95531,-11.01235 17.32295,-22.94705 25.23736,-35.62451 5.77839,-9.25593 11.39528,-19.07412 14.43646,-30.08102 1.52262,-5.51083 2.38354,-11.30458 2.23876,-17.13746 -0.0711,-2.86655 -0.38971,-5.74446 -0.97558,-8.56209 m -5.616,28.38307 c 0.6379,-1.53581 1.21834,-3.09515 1.73072,-4.68105 1.56538,-4.84518 2.47396,-9.91288 2.37563,-14.9645 -0.0983,-5.05082 -1.22261,-10.08682 -3.5475,-14.51398 -4.22193,-8.03956 -12.17001,-13.59199 -20.80813,-16.30667 -8.65225,-2.71912 -17.94304,-2.81563 -27.08197,-1.91541 -1.60913,0.1585 -3.21471,0.34686 -4.81652,0.56454 m 20.60682,-1.84732 c -7.57076,-2.07633 -15.47601,-2.68014 -23.18075,-2.78919 -18.93762,-0.26802 -37.03682,2.31447 -53.99711,6.59781 m 16.0047,-3.86864 c -22.19994,3.88953 -43.97734,11.66652 -63.88605,20.25926 -5.53419,2.38859 -10.95833,4.85124 -16.18296,7.44808 m 20.67874,-2.21967 c -1.45418,0.58731 -2.90739,1.18005 -4.35927,1.7773 -18.29448,7.52582 -36.70794,15.86964 -53.11123,27.01969 -8.03039,5.45862 -15.57346,11.63633 -22.13117,18.46394 m 18.41967,-23.1742 c -15.70985,10.77614 -28.39063,26.01021 -35.14213,44.39551 -4.77672,13.00767 -6.47723,27.3406 -5.68448,41.51081 m -0.36968,-22.95381 c -2.96469,10.41091 -4.10474,21.1489 -3.62393,31.5096 0.6523,14.05591 4.23646,27.4179 9.80634,39.28286 2.07246,4.41477 4.43709,8.64614 7.12662,12.59581 m -7.82483,-16.26037 c 0.98319,3.19483 2.10054,6.35931 3.3389,9.48503 6.09931,15.39505 15.29618,30.10604 28.19264,41.41645 10.05816,8.82118 22.27518,15.42805 35.38651,19.1487 m -24.77848,-21.64488 c 9.89081,7.53363 20.92426,13.06729 32.36298,16.3387 14.41148,-9.7214 28.01391,-19.69806 41.22478,-29.19945 m -33.88239,27.94147 c 18.56187,-14.28708 36.58348,-29.12129 53.29484,-44.4774 m -11.1068,10.87956 c 22.21959,-20.23487 42.80375,-40.54732 62.57149,-62.7367 m -13.82495,18.61037 c 16.08958,-17.8025 32.14423,-37.46991 46.49476,-58.10632 m -16.32589,14.30363 c 10.08229,-12.56772 19.99383,-26.35318 29.70113,-41.09364 6.17805,-9.38131 12.33609,-19.28037 16.02966,-30.39383 0.43787,-1.31748 0.84002,-2.6508 1.20169,-3.99665 m -11.409,15.72528 c 2.79702,-5.25797 5.27706,-10.60062 6.99769,-16.18779 1.53325,-4.97869 2.4416,-10.12216 2.36521,-15.21274 -0.0764,-5.09028 -1.15643,-10.12837 -3.42496,-14.54355 -4.11928,-8.01725 -11.92653,-13.49893 -20.43631,-16.22017 -6.65047,-2.12667 -13.71155,-2.70661 -20.82398,-2.56872 m 30.30035,11.16712 c -2.17965,-1.1082 -4.45207,-2.05368 -6.76329,-2.82912 -8.89728,-2.98513 -18.36751,-3.67625 -27.59288,-3.64649 -15.1244,0.0488 -29.77477,1.95169 -43.98837,5.48774 m 22.13321,-7.13188 c -26.82175,3.91949 -53.55929,12.99232 -79.11865,23.99893 4.5e-4,-1.9e-4 -0.33874,0.14602 -0.3383,0.14582 m 15.69803,-9.55382 c -6.19982,2.35535 -12.45744,4.92027 -18.7501,7.63962 -18.7447,8.10044 -38.14634,17.68548 -55.85432,30.94171 -3.27316,2.45029 -6.4897,5.03444 -9.62145,7.74946 m 20.66084,-21.83885 c -4.03485,2.41929 -7.95454,5.00691 -11.73866,7.7875 -16.23094,11.92659 -29.98199,27.64122 -37.6618,46.51438 -2.5363,6.23296 -4.38376,12.75139 -5.60105,19.41018 m 15.18518,-24.56561 c -0.92221,1.99162 -1.78853,4.02721 -2.59238,6.1068 -5.39819,13.96545 -7.8432,29.60402 -7.47275,45.40013 0.30498,13.00429 2.48682,26.12293 6.22058,39.02308 m -13.37171,-19.83108 c 1.50781,10.52453 4.49079,20.73844 8.58319,30.47653 6.5267,15.53061 16.0458,30.1152 29.23358,41.37261 2.84588,2.42933 5.85589,4.6931 9.00433,6.78074 m -20.06167,-27.46662 c 2.84098,3.64249 6.02697,7.12709 9.56598,10.37226 10.74291,9.85097 24.6181,17.29915 39.48372,20.99724 3.22649,-2.22331 6.43822,-4.4672 9.62803,-6.73868"
         style="fill:none;fill-rule:evenodd;stroke:#cccccc;stroke-width:1.31066632px;stroke-linecap:butt;stroke-linejoin:miter;stroke-opacity:1" />
      <path
         sodipodi:nodetypes="csssssssssc"
         inkscape:connector-curvature="0"
         inkscape:original-d="m 250.3354,505.77835 c 0,0 -17.56631,-17.83982 -24.04969,-28.42236 -6.39899,-10.4448 -13.19574,-21.68125 -14.21118,-33.8882 -1.0551,-12.68376 3.3275,-25.65085 8.74535,-37.1677 6.42174,-13.65084 16.41912,-25.65559 27.32919,-36.07453 10.23347,-9.7728 22.71365,-16.9974 34.98136,-24.04969 12.57701,-7.2301 25.93761,-13.06526 39.35404,-18.58385 12.1505,-4.99787 24.40036,-10.01826 37.1677,-13.11801 10.36619,-2.51679 21.38326,-7.07793 31.70187,-4.37267 11.068,2.90173 22.24477,10.51985 27.32919,20.77018 4.85763,9.79311 0,32.79503 0,32.79503"
         inkscape:path-effect="#path-effect4208;#path-effect4267"
         id="path4206"
         d="m 247.23634,504.65237 c -6.68494,-7.71251 -13.06333,-15.82234 -18.91088,-24.31495 -7.06538,-10.26134 -13.46351,-21.43144 -15.08076,-33.63678 -0.54737,-4.13094 -0.52954,-8.26246 -0.0683,-12.35357 m -2.33779,16.8503 c -0.57983,-2.26753 -1.00553,-4.5637 -1.25228,-6.8877 -1.37894,-12.98785 2.95741,-25.73749 9.18091,-37.08293 4.20563,-7.66685 9.30082,-14.88554 15.15984,-21.51657 m -11.96949,12.18019 c 5.58706,-10.07004 12.90253,-19.34347 21.55738,-27.49272 9.89532,-9.31725 21.45734,-17.11447 33.39801,-24.358 m -12.03371,9.29483 c 5.70485,-3.3493 11.51288,-6.48656 17.33505,-9.48658 13.04895,-6.7238 26.25072,-12.81514 39.83877,-18.0721 10.01031,-3.8728 20.22809,-7.29249 30.74077,-10.26429 m -27.88393,7.08264 c 10.36146,-4.44474 21.39541,-8.34443 32.89925,-11.94512 10.80241,-3.38115 22.42055,-6.51917 34.1071,-4.9916 6.51782,0.85196 12.79188,3.22963 18.27289,6.67567 m -23.66164,-1.49459 c 1.1437,0.1213 2.29079,0.28936 3.44065,0.5105 11.45357,2.20271 22.14432,9.93064 27.82415,19.90802 3.89671,6.84509 5.41767,14.64181 4.51673,21.76566 M 239.43898,496.99253 c -6.89059,-6.96879 -12.9198,-14.50802 -18.07911,-22.52337 -6.63641,-10.31015 -11.97694,-21.8592 -12.21639,-34.39827 -0.0567,-2.96658 0.17474,-5.93474 0.6512,-8.89096 m 4.79245,18.67903 c -0.62035,-2.60423 -1.07035,-5.23953 -1.30942,-7.90707 -1.14847,-12.81447 2.70201,-25.26673 7.93816,-36.08422 3.18534,-6.58068 6.90919,-12.72707 11.13317,-18.32883 m -3.22,15.53133 c 6.60554,-10.30517 14.41447,-20.05675 23.31831,-28.69577 10.29083,-9.98475 21.97216,-18.4429 33.96023,-26.24806 3.61495,-2.35361 7.26659,-4.6547 10.95677,-6.90128 m -24.13298,8.51365 c 3.51392,-2.00967 7.13232,-3.94544 10.81957,-5.82658 12.69972,-6.47907 26.2764,-12.3557 40.41524,-17.32038 11.29077,-3.96462 22.93543,-7.34678 34.76852,-10.09884 m -24.23959,11.75347 c 9.68288,-3.31054 19.2027,-6.4153 28.63102,-9.36769 10.33905,-3.23757 20.98614,-6.32111 31.45175,-4.68066 6.61158,1.03634 12.80607,4.05181 17.85118,8.41743 m -22.89001,-13.27292 c 12.23655,2.32734 22.80801,10.33152 27.858,20.76198 4.58386,9.46771 4.59082,20.73832 0.17867,30.11027 M 242.19138,497.44466 c -7.1276,-7.55296 -13.70146,-15.51003 -19.48346,-23.70764 -6.66026,-9.44278 -12.40103,-19.59243 -13.09671,-30.29817 -0.26776,-4.12046 0.22746,-8.17852 1.31305,-12.094 m 3.54858,14.73483 c -0.60074,-2.06909 -1.059,-4.17394 -1.35282,-6.31196 -1.68078,-12.23007 2.17264,-24.48378 7.60522,-35.14967 3.94672,-7.74865 8.76496,-14.90511 14.26094,-21.1533 m -8.27736,15.12621 c 6.03934,-9.79644 13.13524,-18.60492 21.12422,-26.16966 10.10423,-9.56767 21.5413,-17.08811 33.10889,-23.82008 0.77203,-0.4493 1.54498,-0.89534 2.31882,-1.33821 m -16.17793,6.72781 c 4.38639,-2.68706 8.94799,-5.22327 13.61628,-7.65445 12.80065,-6.66641 26.46085,-12.58813 40.69662,-17.61001 10.53879,-3.71771 21.38934,-6.94157 32.4324,-9.69627 m -21.13611,10.60398 c 16.98648,-6.00545 13.94967,-4.92144 30.93615,-10.92689 10.33949,-3.66535 21.00322,-7.37038 31.61744,-6.55697 10.67322,0.81792 20.3152,6.4911 25.83154,14.46721 m -24.43631,-16.5479 c 10.07189,3.21624 18.83557,10.87595 23.47675,20.71352 3.84514,8.15025 4.84301,17.66809 2.9994,26.5932"
         style="fill:none;fill-rule:evenodd;stroke:#cccccc;stroke-width:1.31066632px;stroke-linecap:butt;stroke-linejoin:miter;stroke-opacity:1" />
      <path
         sodipodi:nodetypes="cssssssssssssssssssc"
         inkscape:connector-curvature="0"
         inkscape:original-d="m 189.11801,419.41811 c 0,0 2.70804,23.34866 4.37267,34.98136 1.62084,11.32667 3.63564,22.59347 5.46584,33.8882 2.53927,15.6706 4.06698,31.54135 7.65218,47.00621 2.83764,12.24021 6.07586,24.48592 10.93167,36.07454 5.29348,12.63315 11.56114,25.04049 19.67702,36.07453 9.31403,12.663 19.38907,25.6795 32.79503,33.8882 15.92474,9.75099 34.96185,14.78702 53.56522,16.39751 17.56112,1.52026 35.37251,-2.27999 52.47205,-6.559 22.71427,-5.68405 44.78934,-14.3922 65.59006,-25.14286 16.34013,-8.44525 31.84318,-18.76128 45.91305,-30.60869 14.9844,-12.61748 28.59598,-27.03607 40.4472,-42.63355 10.28356,-13.53427 20.6896,-27.65918 26.23602,-43.7267 5.75163,-16.66202 8.81041,-34.98962 6.55901,-52.47205 -1.50381,-11.67734 -7.42536,-22.48894 -13.11801,-32.79503 -7.18905,-13.01521 -18.12752,-23.61139 -26.23603,-36.07454 -8.72544,-13.4114 -15.06765,-28.29946 -24.04969,-41.54037 -8.59397,-12.66884 -18.41069,-24.49341 -28.42236,-36.07453 -6.23705,-7.21479 -12.7677,-14.19635 -19.67701,-20.77019 -2.43388,-2.31571 -7.65218,-6.55901 -7.65218,-6.55901"
         inkscape:path-effect="#path-effect4212;#path-effect4263"
         id="path4210"
         d="m 191.31215,429.38332 c 1.45302,9.20082 2.82836,18.56504 4.22882,28.0028 1.67304,11.27467 3.38155,22.65226 4.74887,34.08261 0.69177,5.78298 1.29624,11.57937 1.92995,17.35775 m -5.95919,-21.61494 c 2.21117,15.91669 -1.93599,-13.93564 0.27519,1.98106 2.14522,15.4528 4.29591,31.32851 8.14995,47.08396 1.78688,7.3048 3.94137,14.58263 6.51231,21.75095 m -7.21704,-15.32333 c 1.98861,9.90261 4.9333,19.62539 8.90451,28.93901 5.25656,12.32816 12.29878,23.90251 20.47104,34.44848 0.45501,0.58718 0.91393,1.17149 1.37681,1.75265 m -6.82329,-13.34363 c 2.65473,4.29268 5.4103,8.463 8.265,12.51377 9.41606,13.36125 20.07931,25.57661 33.39624,34.4872 9.34313,6.25166 19.81793,10.73135 30.95361,13.75169 M 273.0419,643.35958 c 14.12951,7.88847 31.56045,11.86651 49.67996,12.26922 12.2482,0.27222 24.8033,-1.0326 37.42362,-3.422 m -25.23636,8.62588 c 13.02241,-0.28966 26.58731,-3.12986 40.30956,-7.35764 12.25094,-3.77447 24.67942,-8.65892 37.0475,-14.51441 m -23.33271,4.31147 c 15.96127,-5.27455 32.45667,-12.08041 48.80328,-20.40081 7.18765,-3.65851 14.34844,-7.61109 21.40628,-11.86497 m -11.06162,10.64544 c 14.68072,-8.11536 27.9863,-16.89537 39.74935,-26.53059 5.02799,-4.11847 9.76763,-8.3876 14.24733,-12.77782 m -5.70677,13.42045 c 13.60818,-11.30395 25.2996,-24.7402 35.64158,-39.45402 7.75228,-11.02939 14.80072,-22.8732 20.30865,-35.61782 m -14.95762,18.02405 c 6.831,-9.62001 13.18179,-20.02726 18.13416,-31.1992 7.14509,-16.11843 11.23556,-33.92155 9.29675,-50.32938 -0.01,-0.0834 -0.0199,-0.16678 -0.03,-0.25009 m -0.0689,28.3688 c 1.3268,-8.02998 1.40042,-16.22149 0.0365,-24.30547 -1.96866,-11.6686 -6.87595,-22.86481 -13.30623,-33.08914 -4.00006,-6.3602 -8.57597,-12.35104 -13.16755,-18.313 m 6.99419,11.86239 c -7.02668,-11.62003 -16.60181,-22.40274 -24.65693,-34.70117 -8.89465,-13.58021 -15.85066,-28.87851 -24.51034,-43.10187 m 9.22164,19.52648 c -3.68568,-7.26732 -7.39083,-14.40769 -11.67571,-21.03119 -7.85806,-12.14689 -17.56989,-22.41435 -27.05677,-31.85418 -2.5847,-2.57188 -5.15756,-5.08762 -7.7619,-7.49 m 16.99005,9.61748 c -1.94668,-1.98827 -3.89803,-3.96847 -5.84582,-5.94488 -6.614,-6.71121 -13.22822,-13.42247 -20.51656,-19.33595 -0.16979,-0.13777 -0.33995,-0.27509 -0.51046,-0.41198 M 190.04034,430.46549 c 1.03846,8.62835 2.13233,17.36393 3.29303,26.14795 1.48775,11.25907 3.08492,22.59549 4.26372,33.98896 0.61516,5.94577 1.11642,11.90697 1.61012,17.85307 m -2.7196,-21.21035 c 0.003,0.0256 0.10832,0.80574 0.11175,0.83129 2.16979,16.13148 4.3872,32.17676 8.39182,48.07245 3.17304,12.59488 7.47387,25.09743 13.16581,37.32682 0.82716,1.77719 1.68352,3.5481 2.56795,5.31282 m -6.02664,-21.42721 c 1.99265,6.44509 4.22652,12.66413 6.76775,18.6267 5.30173,12.43961 11.92844,23.72645 19.65993,33.84196 6.82721,8.93241 14.62769,17.04656 23.88367,23.29942 m -21.90361,-20.1772 c 7.99528,10.83957 17.29056,20.79869 28.44476,28.59136 16.01314,11.18729 35.38853,17.48987 54.93476,20.23299 0.63821,0.0896 1.27664,0.1755 1.91528,0.25792 m -36.40115,-8.80384 c 8.68909,2.52395 17.8241,3.85826 27.08299,4.12074 18.25169,0.51742 36.9623,-2.99075 55.757,-8.16939 0.76102,-0.20969 1.5224,-0.42214 2.28411,-0.63734 m -23.48911,5.18192 c 6.14821,-1.20192 12.24822,-2.63488 18.2985,-4.22337 23.54659,-6.18209 46.61908,-14.75171 69.73277,-26.45248 0.5373,-0.27199 1.07462,-0.54568 1.61198,-0.82109 m -23.60307,18.17259 c 7.06372,-3.09061 13.95208,-6.46738 20.65753,-10.14312 16.29432,-8.93208 31.52316,-19.63978 45.32576,-32.42847 4.11066,-3.80869 8.0912,-7.79848 11.95243,-11.95675 m -21.3121,12.6516 c 2.63015,-2.26684 5.24531,-4.54827 7.83935,-6.85115 14.78192,-13.12278 28.82673,-26.89747 41.7543,-41.48048 6.32148,-7.13097 12.40138,-14.49283 17.79541,-22.31243 m -20.46273,29.25133 c 0,0 0.01,-0.0127 0.01,-0.0127 10.48013,-13.78456 19.96248,-28.98298 26.30427,-46.30713 5.39861,-14.74761 8.44718,-31.17248 7.73179,-48.04902 m 0.11139,35.15353 c 2.65625,-12.15812 3.50526,-24.68308 1.57241,-36.8417 -1.85581,-11.67394 -6.22206,-22.7514 -11.97585,-32.81951 -4.36221,-7.63309 -9.51666,-14.71943 -14.55539,-21.8888 m 18.80429,15.71399 c -0.43185,-0.73823 -0.87452,-1.47105 -1.32742,-2.19821 -7.47425,-12.00023 -17.68296,-22.48544 -26.17424,-33.9685 -8.0605,-10.90049 -14.50537,-22.59515 -22.0985,-32.94081 m 13.43876,20.42504 c -4.99346,-8.70235 -9.70437,-17.48277 -15.21143,-25.70412 -7.67993,-11.46516 -16.84099,-21.74637 -26.35915,-31.69738 m 10.06782,12.23148 c -4.08093,-5.27104 -8.32928,-10.35935 -12.59951,-15.3774 -6.20426,-7.29077 -12.47881,-14.46269 -19.40459,-20.92814 -2.04178,-1.90608 -4.13825,-3.74884 -6.2848,-5.52686 M 194.00895,428.57176 c 0.6875,10.19619 1.75805,20.21811 3.10821,30.107 1.53569,11.24773 3.43279,22.32171 4.98707,33.38496 0.47155,3.35648 0.91164,6.71251 1.33617,10.06671 m -8.65012,-15.73458 c 0.48709,3.08883 0.52788,3.34098 1.01498,6.42981 2.48613,15.79276 4.74709,30.91902 8.69571,45.21234 2.48737,9.00383 5.64863,17.6797 9.65911,25.91501 m -9.38662,-24.02829 c 2.14223,9.04565 5.03339,18.22181 8.78061,27.30575 5.33085,12.92292 12.38273,25.62446 20.64208,37.71507 5.82432,8.52604 12.31284,16.808 19.61801,24.18464 m -16.84641,-18.65091 c 0.0812,0.12747 0.16247,0.25481 0.24396,0.38201 8.7855,13.71446 19.65388,25.96618 33.37865,34.71108 9.90173,6.30902 21.10124,10.63976 32.85927,13.37408 m -16.81821,-10.05379 c 13.04613,6.0613 27.28505,9.20913 41.43897,9.90186 13.31441,0.65164 26.56163,-0.78954 39.59237,-3.30114 m -23.81902,1.16769 c 11.32483,-1.05649 22.25146,-3.09596 32.7133,-5.56056 18.13143,-4.2714 35.07284,-9.84079 50.84335,-16.71003 m -22.75672,2.8096 c 11.51573,-4.51477 22.92282,-9.60039 34.03417,-15.30746 16.37315,-8.40966 32.11012,-18.17336 46.36451,-29.57997 0.31451,-0.25168 0.62827,-0.50413 0.94129,-0.75736 m -14.56097,16.43261 c 7.35319,-4.65998 14.27225,-9.57676 20.77252,-14.74689 15.12236,-12.02791 27.9309,-25.38774 39.52151,-39.05786 0.85302,-1.00607 1.7001,-2.01478 2.54022,-3.02635 m -22.49911,21.19343 c 4.1431,-4.69223 8.19631,-9.56533 12.15879,-14.57743 10.58316,-13.38652 20.59317,-27.88521 27.74117,-43.8043 3.07241,-6.84246 5.59532,-13.97235 7.36787,-21.19977 m -9.20129,14.60603 c 0.41906,-1.14098 0.82737,-2.28454 1.22405,-3.43115 5.98138,-17.28927 9.19877,-35.42176 6.333,-52.63573 -0.77136,-4.63334 -1.97392,-9.15823 -3.53966,-13.55822 m 11.05956,19.17889 c -0.0426,-0.31275 -0.0875,-0.6253 -0.13473,-0.93764 -1.78123,-11.77197 -6.84836,-22.97971 -13.87956,-33.23359 -8.82806,-12.87432 -20.69996,-24.27274 -31.16734,-37.17433 -4.07589,-5.02375 -7.93251,-10.26649 -11.75082,-15.5908 m 21.21594,30.14741 c -2.20903,-3.05233 -4.38722,-6.15679 -6.45229,-9.36246 -8.46412,-13.13903 -14.94466,-27.84898 -23.38785,-41.29705 -6.36109,-10.13176 -13.78898,-19.47389 -21.2648,-28.48467 m 10.95618,14.08559 c -7.20793,-10.02337 -15.17285,-19.1943 -22.96232,-28.05434 -5.96405,-6.78372 -11.85581,-13.42124 -18.28664,-19.22542 -1.60549,-1.44905 -3.24336,-2.84496 -4.91136,-4.18541"
         style="fill:none;fill-rule:evenodd;stroke:#cccccc;stroke-width:1.31066632px;stroke-linecap:butt;stroke-linejoin:miter;stroke-opacity:1" />
      <path
         sodipodi:nodetypes="cssssssssssc"
         inkscape:connector-curvature="0"
         inkscape:original-d="m 220.81988,569.18208 c 0,0 9.71613,21.12839 17.49068,29.51553 9.07135,9.78611 20.73826,17.23887 32.79503,22.95652 13.34146,6.32689 27.90375,10.99664 42.63354,12.02484 16.14223,1.12679 32.4611,-2.40142 48.09938,-6.559 17.85262,-4.74629 35.23245,-11.796 51.37888,-20.77019 14.58857,-8.10833 27.58183,-18.88287 40.44721,-29.51553 11.52633,-9.52599 23.02434,-19.28905 32.79503,-30.60869 12.15229,-14.07879 22.83753,-29.56329 31.70186,-45.91304 7.32126,-13.50365 14.27686,-27.61288 17.49068,-42.63355 2.36464,-11.0518 2.61787,-22.68957 1.09317,-33.88819 -0.82405,-6.05244 -5.46584,-17.49069 -5.46584,-17.49069"
         inkscape:path-effect="#path-effect4235;#path-effect4265"
         id="path4233"
         d="m 224.63934,578.76263 c 4.06054,8.29572 9.36732,16.12711 15.72384,22.92407 9.12086,9.75283 20.25552,17.27663 31.89875,23.20456 3.49842,1.78115 7.06431,3.42961 10.69434,4.90258 m -20.73916,-10.50391 c 2.09375,1.1146 4.22955,2.18034 6.39609,3.20173 13.25212,6.24759 27.93669,10.97685 43.27782,12.20271 6.86684,0.54871 13.78021,0.39293 20.68819,-0.25865 m -18.49521,0.37337 c 14.10442,0.0406 28.76285,-3.32188 43.23533,-7.81659 9.86182,-3.06279 19.74201,-6.66923 29.34275,-11.05557 m -13.41829,6.41699 c 13.95196,-3.92603 27.12513,-9.18124 39.38265,-16.03191 14.62184,-8.17209 27.79144,-18.52598 41.09058,-28.76257 0.10529,-0.081 2.23267,-1.71664 2.33796,-1.79768 m -23.46016,15.0082 c 6.18846,-5.02512 12.47448,-10.30158 18.85277,-15.59174 11.8819,-9.85486 24.27908,-19.91749 35.80717,-31.45495 4.02651,-4.02979 7.93374,-8.22663 11.73145,-12.57245 m -17.80475,22.55186 c 1.28948,-1.36224 2.57235,-2.75941 3.84537,-4.19319 12.1106,-13.63989 23.205,-30.45916 33.67992,-48.72218 2.76285,-4.81703 5.49261,-9.75571 8.09476,-14.81579 m -14.93056,14.02461 c 0.4319,-0.81702 0.86345,-1.63614 1.29465,-2.45714 7.09494,-13.50873 14.17706,-27.70565 18.41774,-42.97422 2.34984,-8.4606 3.79798,-17.22053 3.96256,-25.92105 m 2.74738,18.78964 c 1.25083,-8.43422 1.19623,-16.85631 -0.4473,-24.92187 -0.58343,-2.86315 -1.36566,-5.67609 -2.33868,-8.41831 M 228.00119,581.48951 c 3.82329,8.088 8.78382,15.41563 14.69434,21.61732 9.12262,9.57201 20.33555,16.34752 32.0704,21.33579 7.50315,3.18945 15.31305,5.69136 23.35826,7.18527 m -25.6855,-12.6139 c 13.03469,7.01899 27.54285,11.92052 42.79019,13.31556 16.07542,1.47081 32.54931,-0.9807 48.64121,-4.03982 m -25.05066,8.77217 c 9.30448,-1.06602 18.29246,-3.09647 26.97731,-5.53039 17.8837,-5.01187 34.85311,-11.79202 50.61887,-21.27525 m -22.9853,4.51389 c 6.60008,-2.55608 12.9213,-5.53964 18.94477,-8.98679 14.70468,-8.41528 27.46881,-19.48684 39.9449,-31.05139 4.81558,-4.46373 9.60295,-9.01359 14.30088,-13.70756 m -21.29447,14.2072 c 0.36844,-0.2856 3.61755,-2.81154 3.98599,-3.09714 12.01458,-9.34876 23.60343,-18.4027 34.03111,-28.14344 7.82853,-7.31282 14.93565,-14.95222 21.66597,-22.59075 m -9.05652,11.00622 c 8.3118,-10.60093 15.6645,-22.22837 22.183,-33.92093 4.5884,-8.23044 8.7991,-16.57255 11.80815,-24.99782 m -5.19662,16.87917 c 4.73976,-9.93477 8.56192,-20.03469 10.62852,-30.49039 2.19741,-11.11757 2.36513,-22.62457 -0.25097,-33.73277 -0.98304,-4.17408 -2.35608,-8.2818 -4.09839,-12.26687 m -312.0208,156.62387 c 3.46928,10.66167 9.36283,20.46692 17.14739,28.71561 9.51655,10.08394 21.69677,17.73357 34.67398,24.00825 5.94475,2.87438 12.10667,5.48521 18.42888,7.71733 m -20.49181,-7.71562 c 2.02648,1.10564 4.07167,2.14701 6.12842,3.12911 13.61543,6.50142 28.03225,10.54826 42.79436,10.47207 15.27394,-0.0788 30.40649,-4.54433 45.2924,-10.53534 m -30.45428,6.03962 c 10.33456,-0.79649 20.63709,-2.87008 30.74649,-5.30896 18.06042,-4.35706 35.89597,-9.92849 52.53944,-17.52778 3.37293,-1.54006 6.68702,-3.15844 9.95417,-4.82996 m -33.17118,9.36459 c 5.36121,-2.36474 10.6616,-5.00965 15.8692,-7.96748 14.85754,-8.43883 28.80624,-19.33167 42.9355,-30.69662 4.08307,-3.28424 8.19118,-6.61572 12.28609,-10.02455 m -19.18594,13.84886 c 1.55037,-1.26552 3.09418,-2.53466 4.63348,-3.80489 11.98896,-9.89324 23.78841,-19.91861 34.56243,-31.29301 9.47473,-10.00271 18.08792,-20.97926 26.37955,-32.62352 m -15.43245,27.69547 c 8.44737,-10.9472 15.66942,-22.75262 22.12764,-35.0252 7.31492,-13.90056 13.73891,-28.60818 16.83508,-44.53896 0.49805,-2.5626 0.90795,-5.15622 1.22225,-7.77207 m -8.16532,20.93056 c 2.20109,-6.31652 4.11042,-12.61543 5.52261,-18.97156 2.48676,-11.19268 3.37944,-22.50323 1.786,-33.26879 -0.62052,-4.19234 -1.61503,-8.28858 -2.96855,-12.23117"
         style="fill:none;fill-rule:evenodd;stroke:#cccccc;stroke-width:1.31066632px;stroke-linecap:butt;stroke-linejoin:miter;stroke-opacity:1" />
      <path
         sodipodi:nodetypes="cssssssssssssssssssssc"
         inkscape:connector-curvature="0"
         inkscape:original-d="m 189.11801,392.08891 c 0,0 -35.62455,28.58577 -50.28571,45.91305 -18.21502,21.52741 -35.48875,44.85379 -45.913045,71.0559 -9.590267,24.10573 -13.669972,50.584 -14.21118,76.52174 -0.645014,30.91272 2.563894,62.76368 13.118012,91.82608 10.389393,28.6088 28.155193,54.62291 48.099383,77.61491 17.12008,19.73632 37.71522,36.85231 60.12422,50.28571 19.2101,11.51578 40.46301,20.21074 62.31056,25.14286 23.50237,5.3057 48.27613,7.62767 72.14907,4.37267 23.29254,-3.17586 45.52539,-12.71083 66.68323,-22.95652 20.65103,-10.00027 39.70154,-23.24267 57.93788,-37.1677 19.89066,-15.18825 38.34433,-32.30491 55.75156,-50.28572 19.24404,-19.87815 36.8515,-41.35546 53.56521,-63.40372 15.6909,-20.699 30.17931,-42.33565 43.72671,-64.4969 13.43897,-21.98389 26.2986,-44.41488 37.1677,-67.77639 10.21927,-21.96479 21.2398,-44.07148 26.23603,-67.7764 4.88998,-23.20079 5.98594,-47.50036 3.2795,-71.0559 -1.68542,-14.66913 -4.55836,-29.8948 -12.02484,-42.63354 -7.03571,-12.0038 -17.10432,-23.2263 -29.51553,-29.51553 -17.10087,-8.66567 -37.68681,-8.03255 -56.84472,-8.74534 -18.62803,-0.69308 -37.21584,2.39494 -55.75155,4.37267 -13.52816,1.44343 -40.44721,5.46584 -40.44721,5.46584"
         inkscape:path-effect="#path-effect4239;#path-effect4257"
         id="path4237"
         d="m 185.46056,399.52862 c -15.30568,11.95028 -30.80795,26.16754 -45.24994,41.63974 -4.38557,4.69842 -8.68062,9.52572 -12.81353,14.4615 m 9.48943,-17.17371 c -0.15022,0.15726 -0.30019,0.31473 -0.44991,0.47239 -16.33485,17.20076 -29.83718,36.91504 -38.967575,58.71227 m 4.153155,-14.08707 c -5.341157,8.31278 -9.814195,16.93343 -13.362369,25.82408 -5.445248,13.64415 -8.650003,27.76676 -10.471928,41.82151 m 5.304206,-15.73435 c -2.897299,16.68763 -4.517824,33.45281 -4.914588,50.16186 -0.361826,15.23772 0.292286,30.57329 2.704357,46.02189 m -4.4028,-29.01325 c -0.05839,24.43637 5.485827,49.32316 16.779082,72.10238 1.45735,2.93957 3.008056,5.83886 4.645383,8.69488 M 86.818809,669.29146 c 1.003215,3.90355 2.17244,7.71383 3.50799,11.42877 7.270212,20.22272 19.373251,37.36665 34.248171,52.01528 m -16.71174,-16.02884 c 7.57673,12.58364 17.04847,24.3456 27.76175,35.25799 7.16113,7.29422 14.89694,14.23562 23.12908,20.72111 m -8.72664,-9.52296 c 15.73676,15.4242 31.97694,30.16168 49.36912,42.90881 1.25512,0.9199 2.51552,1.82889 3.78109,2.72687 m -7.57163,-4.39822 c 2.89726,1.90003 5.81297,3.7116 8.74979,5.43241 19.66519,11.52268 40.17586,18.90961 61.33715,22.69241 4.59109,0.82071 9.22066,1.4713 13.88425,1.94103 m -26.62284,-9.58695 c 3.39339,1.17798 6.83954,2.25635 10.33162,3.24089 23.46444,6.61552 49.18448,8.99691 74.74775,6.8632 2.61056,-0.2179 5.21408,-0.4821 7.80963,-0.78705 m -25.42014,6.45924 c 6.08162,-0.13552 12.0533,-0.604 17.9167,-1.42663 21.79877,-3.05837 41.71946,-10.93513 60.86255,-20.85462 m -23.36077,3.73482 c 8.56412,-3.04418 16.72407,-6.73055 24.56173,-10.85594 18.98303,-9.99178 36.19502,-22.57258 52.85271,-36.55773 m -22.67648,12.42858 c 8.58169,-5.34471 16.85374,-10.7742 24.90533,-16.20704 14.73472,-9.94231 28.74894,-19.90464 42.69367,-29.5216 m -12.28969,8.17304 c 9.94135,-8.62904 19.69489,-17.79941 28.99916,-27.04928 6.95869,-6.918 13.66741,-13.88104 20.02417,-20.70997 m -9.57116,14.10096 c 15.37922,-17.30343 29.05729,-34.62879 41.39905,-52.53673 2.03992,-2.95994 4.04351,-5.93598 6.01135,-8.93169 m -11.194,12.32929 c 1.48261,-1.9213 2.96962,-3.85463 4.46045,-5.79829 15.4452,-20.13662 31.31361,-41.39718 46.72016,-62.38758 0.0513,-0.0698 3.6167,-4.93396 3.66796,-5.00379 m -10.64446,23.65805 c 3.54923,-5.20129 6.98948,-10.57146 10.33282,-16.09539 13.59686,-22.46496 25.58659,-47.46459 37.06587,-73.85125 -0.001,0.003 0.43218,-0.99468 0.43076,-0.99141 m -15.55384,25.87233 c 4.31868,-7.85883 8.54591,-15.76628 12.69664,-23.66264 10.68563,-20.32835 20.90476,-40.70714 27.2955,-61.09515 m -16.63434,22.9109 c 3.75961,-9.60012 7.12904,-19.51935 9.83037,-29.806 4.43235,-16.87839 6.99669,-34.55699 8.13413,-52.37815 m -4.08283,21.01059 c 1.35454,-13.81296 1.3298,-27.60086 0.33336,-41.23917 -1.09487,-14.98551 -3.41309,-29.97282 -9.07358,-43.51757 -0.62595,-1.49782 -1.29321,-2.97405 -1.99948,-4.42509 m 8.10495,29.86845 c -1.72951,-6.30871 -4.03937,-12.44898 -7.11833,-18.27902 -6.69493,-12.67691 -17.07445,-23.66223 -29.84569,-30.6672 -8.76264,-4.80626 -18.29779,-7.62414 -28.09508,-9.38285 -1.27105,-0.22816 -2.54661,-0.4385 -3.82544,-0.633 M 628.7584,311.94 c -7.31073,-3.25798 -14.89468,-5.10528 -22.5221,-6.04043 -9.59408,-1.17627 -19.22944,-0.90833 -28.58071,-0.21236 -14.69225,1.09347 -29.07512,3.13414 -43.41564,5.40395 m 24.56206,3.08991 c -14.08325,0.65116 -24.70219,1.25318 -38.78545,1.90434 -10.39174,0.47211 -20.76873,0.85811 -31.11884,1.10364 m -308.41225,84.7559 c -15.99674,12.11686 -30.21782,25.76547 -42.85016,40.53086 -8.38355,9.79916 -16.09464,20.14777 -22.85606,31.00644 m 19.58256,-31.95052 c -15.48627,20.17295 -30.05151,42.12309 -39.788316,67.8758 -1.905404,5.03957 -3.618886,10.20628 -5.147432,15.50078 m 10.132687,-23.24777 c -1.358731,2.86871 -2.640725,5.78031 -3.842171,8.735 -7.839252,19.27895 -12.121786,40.0787 -14.486503,61.36223 m 1.907209,-14.5176 c -1.353206,10.11525 -2.088548,20.51697 -2.319032,30.98063 -0.406938,18.4744 0.758713,37.34195 4.334691,55.52512 m -1.328886,-21.20995 c 0.86306,20.50632 4.629065,40.19203 11.21344,58.7307 1.578445,4.4442 3.314165,8.809 5.182013,13.09807 M 87.870688,679.63978 c 0.258937,0.75678 0.523085,1.51021 0.792484,2.26026 9.343549,26.01391 24.834498,47.51044 44.011268,65.24691 m -16.21327,-20.50403 c 5.84794,8.16676 12.41846,16.30153 19.50258,24.28351 15.33962,17.28382 33.20805,34.02283 52.92542,47.9789 M 167.2783,785.19987 c 10.07985,9.32914 21.15,17.4314 33.11665,24.33192 12.35227,7.12289 25.62557,12.94275 39.4809,17.77269 m -16.40872,-11.21139 c 14.04106,6.59984 28.57186,11.72312 43.36915,15.4425 11.88498,2.98736 23.99545,5.07022 36.16862,6.01923 m -23.91418,-4.32198 c 18.95358,3.10469 37.37022,4.21607 54.87749,2.34466 10.92056,-1.16734 21.37167,-3.47739 31.39469,-6.54327 m -23.77231,-0.11182 c 19.47558,-4.38303 38.60647,-11.92388 56.79827,-20.85784 9.92884,-4.87603 19.62513,-10.178 29.0271,-15.87023 m -16.26971,13.89855 c 19.15378,-9.70924 36.21213,-20.53334 52.19881,-31.77354 6.74233,-4.74052 13.29578,-9.55553 19.74503,-14.4056 m -25.84991,17.86685 c 18.7676,-14.41252 37.26041,-30.96258 55.16325,-48.46762 4.94168,-4.83187 9.83882,-9.73663 14.68668,-14.693 m -19.17156,8.86389 c 1.23226,-1.4252 2.46703,-2.84648 3.7037,-4.26448 14.49908,-16.6251 29.25306,-32.79196 43.21774,-49.56516 m -2.49548,16.34203 c 7.18152,-8.47846 13.6608,-17.13078 19.55476,-25.95873 11.96657,-17.92349 21.52471,-36.57572 29.42819,-56.16912 m -10.47371,30.04055 c 8.2045,-11.06904 15.82159,-22.49236 23.08567,-34.13991 9.69892,-15.55168 18.76648,-31.49943 27.86227,-47.48631 m -19.40499,16.74484 c 8.2095,-14.37301 16.37872,-28.68658 24.57168,-42.78417 3.76506,-6.47853 7.55452,-12.9494 11.21625,-19.37666 m -8.13703,19.19354 c 8.70563,-19.40751 18.55721,-40.24149 25.62704,-62.74559 2.47239,-7.86992 4.58626,-15.89722 6.32679,-24.01134 M 671.642,460.84905 c -2e-4,9.8e-4 0.12969,-0.65975 0.12949,-0.65877 4.72194,-24.13843 6.61822,-47.14127 5.70509,-68.96462 -0.28368,-6.77989 -0.85074,-13.50351 -2.03373,-20.00943 m 7.88434,25.75348 c -0.16639,-1.48798 -0.34533,-2.97404 -0.53669,-4.45782 -1.90537,-14.77391 -5.11282,-29.58207 -12.11508,-42.6433 -4.15631,-7.75271 -9.6687,-14.80421 -16.26964,-20.57883 m 9.47095,8.78651 c -6.85411,-8.57293 -15.4414,-16.01608 -25.34876,-21.06331 -8.72654,-4.44568 -18.11727,-6.92552 -27.80842,-8.23873 -4.85502,-0.65788 -9.7855,-1.02273 -14.74202,-1.19322 m 18.84063,-0.43117 c -1.006,-0.15346 -2.01251,-0.29313 -3.01915,-0.41993 -10.00906,-1.26077 -20.01372,-1.24816 -29.66482,-0.87681 -13.28415,0.51114 -26.26263,1.6112 -39.20966,3.05708 m 12.68897,6.02362 c -10.52975,1.12977 -20.87072,2.18264 -31.05191,3.18084 -12.63988,1.23926 -25.02184,2.39287 -37.16136,3.65165 M 186.44552,394.8926 c -16.58778,12.86082 -31.92897,27.3812 -45.70877,43.33903 -7.73289,8.95516 -14.99556,18.40811 -21.49633,28.38031 m 14.0771,-24.51219 c -16.48028,19.2899 -30.71468,41.6544 -38.155395,66.27888 -1.178561,3.90036 -2.182762,7.84542 -3.01649,11.82301 m 10.013515,-26.37457 c -1.77793,3.73248 -3.476577,7.52729 -5.084924,11.38594 -10.027384,24.05709 -16.35705,50.20333 -21.335036,75.74341 -0.577055,2.96065 -1.137122,5.92098 -1.677437,8.87699 M 84.241915,565.6829 c -0.387082,6.71708 -0.703517,13.47587 -0.951425,20.1804 -0.871499,23.56921 -0.917315,47.00781 2.955334,68.08288 m -4.835178,-26.5238 c 1.766091,14.8907 5.165227,30.11686 10.336578,44.97346 5.156943,14.8152 12.025966,29.11533 19.944246,42.47414 m -10.33342,-16.6633 c 10.65764,21.94359 24.689,40.4986 40.95405,56.34544 3.07118,2.99221 6.22634,5.89356 9.46891,8.70046 m -19.77672,-17.17004 c 1.64072,1.94388 3.32947,3.8989 5.06144,5.86203 16.29772,18.47296 36.55425,37.86419 58.96991,54.42276 m -20.41451,-13.3347 c 6.3739,4.80725 13.04634,9.27237 20.02091,13.35728 16.07832,9.41684 33.69901,16.77099 52.36205,22.23592 m -15.17054,-7.43667 c 9.71632,3.67915 19.58443,6.70508 29.51058,9.04953 21.16521,4.99899 42.77267,6.90125 63.6294,3.8756 m -30.14031,2.23501 c 11.13392,0.93339 22.70757,0.79158 34.37021,-0.56762 15.43708,-1.79909 30.83591,-5.69901 45.70563,-10.62066 m -18.39586,2.91153 c 13.7041,-5.00506 27.75717,-10.85533 41.66777,-17.09639 11.74054,-5.26745 23.50319,-10.85398 35.15496,-16.89092 m -13.60079,8.63731 c 14.91562,-8.9649 28.37898,-18.20912 40.4145,-27.71048 6.36149,-5.02204 12.32576,-10.11629 17.90341,-15.29302 m -16.94474,13.84564 c 18.0667,-13.62799 35.11672,-29.25454 52.258,-46.17524 5.90137,-5.82543 11.81375,-11.80407 17.7854,-17.91282 m -18.50074,13.65554 c 0.003,-0.004 0.7118,-0.81045 0.71518,-0.8143 18.02274,-20.51145 35.56956,-39.77909 50.45264,-58.53658 0.67721,-0.85351 1.34894,-1.706 2.01495,-2.55758 m -10.5837,18.64444 c 4.16992,-5.07548 8.20816,-10.24856 12.13646,-15.51259 15.30892,-20.51441 28.95623,-42.41917 41.89392,-65.62682 m -13.55459,20.50187 c 5.23696,-8.57664 10.5114,-16.99743 15.7753,-25.36165 8.39767,-13.34372 16.76743,-26.54152 24.97961,-39.96907 m -13.88906,12.58703 c 7.37967,-13.98648 14.7949,-28.07929 21.98934,-42.26707 3.79337,-7.48072 7.53492,-15.01319 11.01739,-22.6318 m -5.08851,20.61728 c 8.26423,-18.73081 17.09711,-38.17597 22.82669,-58.41736 2.51397,-8.88132 4.40734,-17.85427 5.64412,-26.78439 m -7.74689,19.32209 c 4.54266,-22.27991 6.40176,-44.86592 6.12515,-66.24906 -0.0161,-1.24367 -0.0398,-2.48544 -0.0728,-3.72384 m 4.59948,19.18085 c -0.29739,-4.09837 -0.70095,-8.15073 -1.20763,-12.15719 -1.90464,-15.06077 -5.34159,-29.74559 -12.75903,-42.57046 -3.40917,-5.89452 -7.67203,-11.34764 -12.65972,-16.12449 m 12.7007,12.65439 C 662.6996,335.38266 652.7811,325.65911 640.4016,319.8607 c -9.08614,-4.25583 -19.12996,-6.30134 -29.60312,-7.11031 -1.1639,-0.0899 -2.33302,-0.16455 -3.50666,-0.22528 m 14.32834,2.62006 c -3.80447,-0.82009 -7.70131,-1.41473 -11.65148,-1.84448 -9.34656,-1.01684 -19.05504,-1.11492 -28.44018,-1.06768 -12.26262,0.0617 -24.42848,0.28426 -36.31356,0.74437 m 11.63002,-5.49635 c -12.03687,0.93846 -24.24018,2.15569 -36.50159,3.57192 -13.31291,1.53768 -26.69908,3.31026 -40.01953,5.37894"
         style="fill:none;fill-rule:evenodd;stroke:#cccccc;stroke-width:1.31066632px;stroke-linecap:butt;stroke-linejoin:miter;stroke-opacity:1" />
      <path
         sodipodi:nodetypes="cssssssssssc"
         inkscape:connector-curvature="0"
         inkscape:original-d="m 390.26087,822.79699 c 0,0 29.68916,-12.81231 43.72671,-20.77019 17.14412,-9.719 33.38733,-21.02322 49.19254,-32.79503 15.56564,-11.59338 30.64109,-23.91412 44.81988,-37.1677 14.68696,-13.72859 28.56378,-28.37129 41.54037,-43.72671 14.11203,-16.69901 26.87552,-34.51953 39.35404,-52.47205 13.84559,-19.9193 27.9347,-39.81465 39.35404,-61.21739 11.21657,-21.0227 20.28585,-43.19447 28.42236,-65.59006 7.00787,-19.28902 14.9286,-38.66903 17.49068,-59.03106 2.41275,-19.17518 1.61997,-38.99004 -2.18633,-57.93789 -2.45267,-12.20946 -7.70578,-23.76557 -13.11802,-34.98136 -1.84682,-3.82717 -6.559,-10.93168 -6.559,-10.93168"
         inkscape:path-effect="#path-effect4243;#path-effect4259"
         id="path4241"
         d="m 397.84023,823.84704 c 13.53873,-5.79295 26.1453,-11.99755 38.04423,-18.81926 10.92829,-6.26523 21.24844,-13.04331 31.31237,-20.29286 m -19.23876,8.37423 c 10.98811,-7.39808 22.00777,-15.1296 33.01572,-23.01517 8.71005,-6.23947 17.43013,-12.58731 26.04178,-19.13452 m -15.07436,9.29319 c 10.37762,-8.92817 21.02598,-18.27006 31.50431,-28.23843 8.12148,-7.72621 16.13864,-15.82725 23.87686,-24.34888 m -9.41134,12.60179 c 11.21604,-9.92992 21.45646,-20.68226 31.05901,-31.93311 10.9261,-12.80159 21.01213,-26.2294 31.37423,-39.42362 m -18.39491,19.86269 c 8.08239,-11.52111 16.55516,-23.15183 25.51366,-34.85898 9.06228,-11.84279 18.63232,-23.7789 28.00029,-36.25839 m -15.77853,24.09298 c 9.23615,-13.74552 19.12193,-28.9396 28.38161,-45.66229 4.44317,-8.02425 8.72986,-16.37812 12.90403,-24.97076 m -14.30852,14.33746 c 9.00938,-19.04949 17.7863,-39.37237 26.95146,-59.76059 2.73639,-6.08718 1.73587,-3.8534 4.47226,-9.94059 m -2.5747,17.75366 c 0.79772,-1.99712 1.58004,-3.98551 2.34901,-5.96472 7.47241,-19.23268 13.75373,-37.82453 15.48085,-56.55709 0.0617,-0.6689 0.11742,-1.33772 0.16728,-2.00641 m 2.37769,17.83102 c 1.05057,-4.01145 1.9308,-8.09485 2.61321,-12.25034 3.15582,-19.2172 1.99689,-39.79673 -2.99467,-59.96109 -1.8158,-7.33526 -4.13687,-14.61767 -6.94023,-21.74364 m 5.37354,20.61696 c -0.31114,-1.32361 -0.63739,-2.64642 -0.97891,-3.96753 -3.00891,-11.63933 -7.19735,-23.15161 -12.69416,-33.81889 -0.48984,-0.95061 -0.98998,-1.89444 -1.5003,-2.83102 m -277.40151,471.0267 c 12.94601,-4.9547 25.06862,-10.83365 36.59361,-17.50712 12.17214,-7.04819 23.66261,-14.97224 34.97514,-23.35744 m -21.63451,6.83367 c 11.00257,-6.41474 21.25077,-13.67023 31.08649,-21.42385 13.9606,-11.00529 27.11114,-23.02897 39.8964,-35.86141 m -21.22766,14.28445 c 8.02777,-6.21663 15.77596,-12.39705 23.30751,-18.55264 13.63214,-11.14165 26.53076,-22.18368 39.18155,-32.9347 m -10.9132,9.52745 c 5.92018,-6.22705 11.72883,-12.68051 17.33101,-19.25304 9.38896,-11.01519 18.18853,-22.35187 26.41215,-33.20936 m -8.37458,15.06891 c 7.20721,-9.87923 13.97687,-19.69839 20.52337,-29.43387 7.91075,-11.7643 15.50995,-23.42976 22.35694,-35.48667 m -10.31246,12.94894 c 8.80956,-12.87648 17.77892,-26.1801 26.06059,-40.02315 7.427,-12.41442 14.25716,-25.1903 20.83064,-37.82079 m -7.42577,25.34432 c 7.89509,-15.73676 14.35252,-32.98291 20.58102,-50.97086 5.11878,-14.78305 10.11481,-30.18122 13.77279,-46.19952 m -11.11283,27.68081 c 5.25241,-14.15795 9.94887,-28.47775 12.53043,-43.00808 2.89585,-16.29928 3.05649,-32.6875 0.4871,-47.84122 m -5.35183,24.10107 c 0.096,-11.66661 -0.95793,-23.51995 -3.14914,-35.20882 -2.32518,-12.40349 -5.92272,-24.61997 -10.78349,-36.14258 -1.22028,-2.89271 -2.51929,-5.7408 -3.89258,-8.53696"
         style="fill:none;fill-rule:evenodd;stroke:#cccccc;stroke-width:1.31066632px;stroke-linecap:butt;stroke-linejoin:miter;stroke-opacity:1" />
      <path
         inkscape:original-d="m 277.6646,504.68518 c 0,0 24.04969,-174.90683 69.96273,-182.559"
         inkscape:path-effect="#path-effect4271"
         sodipodi:nodetypes="cc"
         inkscape:connector-curvature="0"
         id="path4249"
         d="m 280.14457,501.70836 c -0.007,0.0355 0.22257,-1.15857 0.21575,-1.12307 1.05357,-5.48939 2.18502,-11.45996 3.82349,-20.32924 2.54285,-13.76483 6.95018,-38.58789 11.15051,-57.46238 m -7.67604,16.44342 c 1.49418,-7.33086 3.2453,-14.75956 5.26964,-22.21172 3.03911,-11.18781 6.64145,-22.22958 10.73711,-32.68086 1.80882,-4.61575 3.70926,-9.10383 5.68825,-13.41056 m -8.41452,14.05333 c 0.0796,-0.27435 0.15961,-0.54833 0.24012,-0.82194 3.17877,-10.80333 7.09924,-21.06068 11.50154,-30.05728 4.39938,-8.99064 9.31484,-16.79493 14.53639,-22.62116 2.61734,-2.92043 5.32165,-5.35661 8.10658,-7.22311 1.7054,-1.14299 3.44068,-2.07223 5.2073,-2.77076 m -63.02581,173.06315 c 1.14982,-5.43112 2.01703,-9.59317 3.69749,-17.68105 3.08819,-14.86323 8.09731,-39.55416 14.0216,-60.15815 1.29228,-4.49441 2.6696,-8.96907 4.14874,-13.38386 m -9.27379,24.22827 c 0.87135,-4.23375 1.85754,-8.48661 2.96148,-12.75124 2.95942,-11.43249 6.7152,-22.74953 11.16562,-33.60851 4.42869,-10.80595 9.51704,-21.08011 14.98345,-30.11786 1.083,-1.79056 2.18192,-3.53427 3.2944,-5.22475 m -12.94362,25.67257 c 1.89335,-4.95611 3.99465,-9.79064 6.26752,-14.37216 4.39206,-8.85328 9.42324,-16.76126 14.8512,-22.78402 2.7172,-3.01494 5.53548,-5.5606 8.44524,-7.54276 0.17308,-0.11791 0.34649,-0.23383 0.52023,-0.34773 m -66.67049,173.80251 c -7.9e-4,0.007 0.0412,-0.35405 0.0404,-0.34718 0.14918,-1.27208 0.38389,-3.18033 0.71606,-5.57157 0.67428,-4.8542 1.74084,-11.64306 3.42188,-20.01245 2.74183,-13.65071 6.7846,-29.84199 12.66512,-48.18283 m -0.40876,18.40503 c 2.17425,-9.22845 4.70711,-20.04965 7.00071,-29.43611 2.6277,-10.75373 5.36882,-21.41579 8.27971,-31.16296 0.44711,-1.49715 0.89915,-2.976 1.35666,-4.43463 m 0.34428,17.30649 c 1.06768,-3.04009 2.14436,-6.07931 3.22769,-9.08362 3.81365,-10.57614 7.74061,-20.80882 11.94202,-29.89893 4.20779,-9.1039 8.66019,-16.99438 13.51077,-22.97589 2.42065,-2.98503 4.92664,-5.47682 7.5296,-7.39696 1.1093,-0.81831 2.23484,-1.53176 3.37722,-2.13489"
         style="fill:none;fill-rule:evenodd;stroke:#cccccc;stroke-width:1.31066632px;stroke-linecap:butt;stroke-linejoin:miter;stroke-opacity:1" />
      <path
         inkscape:original-d="m 267.82609,529.82804 52.47205,100.57143"
         inkscape:path-effect="#path-effect4269"
         inkscape:connector-curvature="0"
         id="path4251"
         d="m 272.36754,539.08794 c 13.5842,22.86896 24.96095,47.19124 36.40867,71.18715 m -12.08845,-19.62408 c 5.38217,10.57565 11.07215,21.34435 16.96816,32.22753 m -46.01081,-84.59789 c 10.4206,21.61037 22.61135,43.07114 34.79841,63.69631 m -5.48138,-14.13089 c 7.6969,13.93485 14.88686,27.5322 22.00821,41.10563 M 267.9873,533.1582 c 12.22075,24.35543 27.46922,49.31125 43.94573,73.34024 m -13.80851,-12.96276 c 5.36818,11.38356 11.28296,22.14564 17.58339,32.43551"
         style="fill:none;fill-rule:evenodd;stroke:#cccccc;stroke-width:1.31066632px;stroke-linecap:butt;stroke-linejoin:miter;stroke-opacity:1" />
      <path
         inkscape:original-d="M 334.50932,661.00817 C 317.86938,750.0631 315.01341,789.49569 312.64596,827.16966"
         inkscape:path-effect="#path-effect4273"
         sodipodi:nodetypes="cc"
         inkscape:connector-curvature="0"
         id="path4253"
         d="m 334.8427,670.89838 c -4.51826,31.28684 -10.0915,57.7138 -13.76303,79.24941 m -0.34496,-21.62671 c -2.2615,12.95135 -3.77511,25.04431 -4.80928,35.66061 -1.28728,13.21459 -1.94555,25.3031 -2.30616,36.02259 m -1.69582,-15.82788 c -1.75707,12.15189 -2.69621,23.4317 -3.31544,33.57441 m 22.7954,-149.42774 c -5.51093,41.56417 -10.90379,70.74578 -13.02502,95.54776 m 1.24836,-28.86645 c -1.70297,9.48007 -2.81076,18.38931 -3.53013,26.44573 -1.92746,21.58597 -1.38292,40.61267 -0.48791,56.02959 m 17.31036,-151.89428 c -6.34439,29.93483 -8.59371,54.1286 -9.52693,71.10751 m -4.14231,-18.93058 c -2.95938,15.91975 -4.54203,30.30742 -5.41127,42.36051 -0.81852,11.34976 -1.08249,21.72667 -1.08899,30.94084 m 4.90346,-14.56816 c -1.23332,14.54159 -2.9218,32.60438 -4.16987,44.8368 m 23.70411,-148.42817 c -6.03147,39.28817 -11.99778,65.88382 -15.628,87.59737 m 1.59041,-29.0259 c -1.74517,10.97318 -2.97177,20.93926 -3.85247,29.92493 -2.40009,24.48786 -2.5775,45.41438 -2.49079,63.93679"
         style="fill:none;fill-rule:evenodd;stroke:#cccccc;stroke-width:1.31066632px;stroke-linecap:butt;stroke-linejoin:miter;stroke-opacity:1" />
      <path
         inkscape:connector-curvature="0"
         id="path4255"
         d="m 252.52174,621.65413 8.74534,-4.37267 40.44721,33.8882 18.58385,-16.39752 45.91304,14.21118 27.32919,-29.51553 43.72671,4.37268 21.86335,-43.72671 34.98137,0 8.74534,-49.19255 33.8882,-5.46584 -3.2795,-52.47205 22.95652,9.83851 -14.21118,-41.54037"
         style="fill:none;fill-rule:evenodd;stroke:#cccccc;stroke-width:1.31066632;stroke-linecap:butt;stroke-linejoin:miter;stroke-miterlimit:4;stroke-dasharray:3.93199906, 3.93199905999999988;stroke-dashoffset:0;stroke-opacity:1" />
    </g>
  </g>
</svg>
